<svg width="20" height="20" viewBox="0 0 20 20" fill="none" xmlns="http://www.w3.org/2000/svg">
<path d="M9.1625 3.9V7.13333C9.1625 7.40106 9.10963 7.66615 9.00693 7.91339C8.90422 8.16063 8.7537 8.38515 8.564 8.57407C8.37431 8.76299 8.14917 8.91259 7.90151 9.01429C7.65385 9.11598 7.38855 9.16776 7.12083 9.16667H3.90416C3.63716 9.16829 3.37259 9.11598 3.12629 9.01288C2.88 8.90978 2.65705 8.75801 2.47083 8.56667C2.28176 8.37917 2.13203 8.15581 2.03043 7.90968C1.92883 7.66354 1.8774 7.3996 1.87916 7.13333V3.90833C1.87916 3.3705 2.09224 2.85457 2.47176 2.47349C2.85129 2.0924 3.36634 1.8772 3.90416 1.875H7.12916C7.39588 1.87526 7.6599 1.92842 7.90594 2.03141C8.15197 2.1344 8.37513 2.28517 8.5625 2.475C8.75207 2.66082 8.90276 2.88252 9.00577 3.12717C9.10878 3.37183 9.16206 3.63454 9.1625 3.9ZM18.1208 3.90833V7.13333C18.1165 7.66983 17.902 8.18326 17.5234 8.56341C17.1448 8.94356 16.6323 9.16014 16.0958 9.16667H12.8625C12.3235 9.16337 11.8068 8.95129 11.4208 8.575C11.2323 8.38541 11.0829 8.16048 10.9814 7.9131C10.8799 7.66572 10.8281 7.40074 10.8292 7.13333V3.90833C10.8285 3.64147 10.8812 3.37718 10.9843 3.13102C11.0873 2.88485 11.2386 2.6618 11.4292 2.475C11.6165 2.28517 11.8397 2.1344 12.0857 2.03141C12.3318 1.92842 12.5958 1.87526 12.8625 1.875H16.0875C16.6254 1.87936 17.1401 2.09498 17.5205 2.47536C17.9008 2.85575 18.1165 3.37041 18.1208 3.90833ZM18.1208 12.8667V16.0917C18.1165 16.6282 17.902 17.1416 17.5234 17.5217C17.1448 17.9019 16.6323 18.1185 16.0958 18.125H12.8625C12.3201 18.1305 11.7969 17.9242 11.4042 17.55C11.2148 17.361 11.065 17.1361 10.9635 16.8886C10.8619 16.6411 10.8106 16.3759 10.8125 16.1083V12.8833C10.8118 12.6165 10.8646 12.3522 10.9676 12.106C11.0707 11.8599 11.2219 11.6368 11.4125 11.45C11.5999 11.2602 11.823 11.1094 12.0691 11.0064C12.3151 10.9034 12.5791 10.8503 12.8458 10.85H16.0708C16.6088 10.8544 17.1234 11.07 17.5038 11.4504C17.8842 11.8307 18.0998 12.3454 18.1042 12.8833L18.1208 12.8667ZM9.1625 12.875V16.1C9.15594 16.6379 8.93821 17.1517 8.55626 17.5305C8.17432 17.9093 7.65878 18.1229 7.12083 18.125H3.90416C3.63793 18.1261 3.37411 18.0745 3.12793 17.9731C2.88175 17.8717 2.65807 17.7226 2.46981 17.5344C2.28156 17.3461 2.13244 17.1224 2.03106 16.8762C1.92969 16.6301 1.87806 16.3662 1.87916 16.1V12.875C1.88131 12.3371 2.09482 11.8215 2.47365 11.4396C2.85248 11.0576 3.36625 10.8399 3.90416 10.8333H7.12916C7.66933 10.8389 8.18624 11.054 8.57083 11.4333C8.95091 11.8168 9.16364 12.3351 9.1625 12.875Z" fill="#FAF9F6"/>
</svg>
