<svg width="21" height="20" viewBox="0 0 21 20" fill="none" xmlns="http://www.w3.org/2000/svg">
<path d="M19.0354 10.1003H17.0354C16.7521 10.1003 16.5147 10.0043 16.3234 9.81228C16.1321 9.62028 16.0361 9.38294 16.0354 9.10028C16.0347 8.81761 16.1307 8.58028 16.3234 8.38828C16.5161 8.19628 16.7534 8.10028 17.0354 8.10028H19.0354C19.3187 8.10028 19.5564 8.19628 19.7484 8.38828C19.9404 8.58028 20.0361 8.81761 20.0354 9.10028C20.0347 9.38294 19.9387 9.62061 19.7474 9.81328C19.5561 10.0059 19.3187 10.1016 19.0354 10.1003ZM14.6354 13.9003C14.8021 13.6669 15.0187 13.5336 15.2854 13.5003C15.5521 13.4669 15.8021 13.5336 16.0354 13.7003L17.6354 14.9003C17.8687 15.0669 18.0021 15.2836 18.0354 15.5503C18.0687 15.8169 18.0021 16.0669 17.8354 16.3003C17.6687 16.5336 17.4521 16.6669 17.1854 16.7003C16.9187 16.7336 16.6687 16.6669 16.4354 16.5003L14.8354 15.3003C14.6021 15.1336 14.4687 14.9169 14.4354 14.6503C14.4021 14.3836 14.4687 14.1336 14.6354 13.9003ZM17.6354 3.30028L16.0354 4.50028C15.8021 4.66694 15.5521 4.73361 15.2854 4.70028C15.0187 4.66694 14.8021 4.53361 14.6354 4.30028C14.4687 4.06694 14.4021 3.81694 14.4354 3.55028C14.4687 3.28361 14.6021 3.06694 14.8354 2.90028L16.4354 1.70028C16.6687 1.53361 16.9187 1.46694 17.1854 1.50028C17.4521 1.53361 17.6687 1.66694 17.8354 1.90028C18.0021 2.13361 18.0687 2.38361 18.0354 2.65028C18.0021 2.91694 17.8687 3.13361 17.6354 3.30028ZM3.0354 12.1003H2.0354C1.4854 12.1003 1.01473 11.9046 0.6234 11.5133C0.232067 11.1219 0.0360671 10.6509 0.0354004 10.1003V8.10028C0.0354004 7.55028 0.2314 7.07961 0.6234 6.68828C1.0154 6.29694 1.48607 6.10094 2.0354 6.10028H6.0354L9.5104 4.00028C9.84373 3.80028 10.1814 3.80028 10.5234 4.00028C10.8654 4.20028 11.0361 4.49194 11.0354 4.87528V13.3253C11.0354 13.7086 10.8644 14.0003 10.5224 14.2003C10.1804 14.4003 9.84307 14.4003 9.5104 14.2003L6.0354 12.1003H5.0354V15.1003C5.0354 15.3836 4.9394 15.6213 4.7474 15.8133C4.5554 16.0053 4.31807 16.1009 4.0354 16.1003C3.75273 16.0996 3.5154 16.0036 3.3234 15.8123C3.1314 15.6209 3.0354 15.3836 3.0354 15.1003V12.1003ZM12.0354 12.4503V5.75028C12.4854 6.15028 12.8481 6.63794 13.1234 7.21328C13.3987 7.78861 13.5361 8.41761 13.5354 9.10028C13.5347 9.78294 13.3971 10.4123 13.1224 10.9883C12.8477 11.5643 12.4854 12.0516 12.0354 12.4503Z" fill="#FAF9F6"/>
</svg>
