<svg width="20" height="20" viewBox="0 0 20 20" fill="none" xmlns="http://www.w3.org/2000/svg">
<path d="M16.5749 2.11675C16.5045 1.98088 16.3981 1.86701 16.2672 1.78763C16.1364 1.70825 15.9863 1.66643 15.8332 1.66675H8.33323C8.00823 1.66675 7.70823 1.85842 7.57489 2.15842L3.40823 11.3251C3.29156 11.5834 3.31656 11.8834 3.46656 12.1251C3.61656 12.3667 3.88323 12.5084 4.16656 12.5084H8.33323V17.5084C8.33323 17.7294 8.42103 17.9414 8.57731 18.0977C8.73359 18.254 8.94555 18.3417 9.16656 18.3417C9.42489 18.3417 9.68323 18.2167 9.84156 18.0001L16.5082 8.83342C16.598 8.70908 16.6517 8.56238 16.6635 8.40946C16.6753 8.25655 16.6446 8.10336 16.5749 7.96675C16.5064 7.82871 16.4006 7.71261 16.2696 7.63161C16.1385 7.5506 15.9873 7.50793 15.8332 7.50842H13.2832L16.5082 2.99175C16.598 2.86741 16.6517 2.72071 16.6635 2.5678C16.6753 2.41488 16.6446 2.26169 16.5749 2.12508V2.11675Z" fill="#FAF9F6"/>
</svg>
