<svg width="398" height="272" viewBox="0 0 398 272" fill="none" xmlns="http://www.w3.org/2000/svg">
<ellipse cx="197.5" cy="147" rx="70.5" ry="22" fill="#BFD1C3"/>
<path d="M184.812 84.4688C184.812 82.4896 185.448 80.4896 186.719 78.4688C187.99 76.4271 189.844 74.7396 192.281 73.4062C194.719 72.0729 197.562 71.4062 200.812 71.4062C203.833 71.4062 206.5 71.9688 208.812 73.0938C211.125 74.1979 212.906 75.7083 214.156 77.625C215.427 79.5417 216.062 81.625 216.062 83.875C216.062 85.6458 215.698 87.1979 214.969 88.5312C214.26 89.8646 213.406 91.0208 212.406 92C211.427 92.9583 209.656 94.5833 207.094 96.875C206.385 97.5208 205.812 98.0938 205.375 98.5938C204.958 99.0729 204.646 99.5208 204.438 99.9375C204.229 100.333 204.062 100.74 203.938 101.156C203.833 101.552 203.667 102.26 203.438 103.281C203.042 105.448 201.802 106.531 199.719 106.531C198.635 106.531 197.719 106.177 196.969 105.469C196.24 104.76 195.875 103.708 195.875 102.312C195.875 100.562 196.146 99.0521 196.688 97.7812C197.229 96.4896 197.948 95.3646 198.844 94.4062C199.74 93.4271 200.948 92.2708 202.469 90.9375C203.802 89.7708 204.76 88.8958 205.344 88.3125C205.948 87.7083 206.448 87.0417 206.844 86.3125C207.26 85.5833 207.469 84.7917 207.469 83.9375C207.469 82.2708 206.844 80.8646 205.594 79.7188C204.365 78.5729 202.771 78 200.812 78C198.521 78 196.833 78.5833 195.75 79.75C194.667 80.8958 193.75 82.5938 193 84.8438C192.292 87.1979 190.948 88.375 188.969 88.375C187.802 88.375 186.812 87.9688 186 87.1562C185.208 86.3229 184.812 85.4271 184.812 84.4688ZM200.062 118.719C198.792 118.719 197.677 118.312 196.719 117.5C195.781 116.667 195.312 115.51 195.312 114.031C195.312 112.719 195.771 111.615 196.688 110.719C197.604 109.823 198.729 109.375 200.062 109.375C201.375 109.375 202.479 109.823 203.375 110.719C204.271 111.615 204.719 112.719 204.719 114.031C204.719 115.49 204.25 116.635 203.312 117.469C202.375 118.302 201.292 118.719 200.062 118.719Z" fill="#2F6B3F"/>
<ellipse cx="272.5" cy="120.5" rx="10.5" ry="5.5" fill="#FDEECC"/>
<ellipse cx="119.5" cy="118" rx="7.5" ry="3" fill="#FDEECC"/>
<ellipse cx="98" cy="83.5" rx="16" ry="10.5" fill="#FDEECC"/>
<path d="M135.517 53.2264C135.722 52.1395 137.278 52.1395 137.483 53.2264L138.33 57.7304C138.404 58.1236 138.705 58.435 139.096 58.5218L143.606 59.5238C144.65 59.7558 144.65 61.2442 143.606 61.4762L139.096 62.4782C138.705 62.565 138.404 62.8764 138.33 63.2696L137.483 67.7736C137.278 68.8605 135.722 68.8605 135.517 67.7736L134.67 63.2696C134.596 62.8764 134.295 62.565 133.904 62.4782L129.394 61.4762C128.35 61.2442 128.35 59.7558 129.394 59.5238L133.904 58.5218C134.295 58.435 134.596 58.1236 134.67 57.7304L135.517 53.2264Z" fill="#FDEECC"/>
<path d="M211.517 30.2264C211.722 29.1395 213.278 29.1395 213.483 30.2264L214.33 34.7304C214.404 35.1236 214.705 35.435 215.096 35.5218L219.606 36.5238C220.65 36.7558 220.65 38.2442 219.606 38.4762L215.096 39.4782C214.705 39.565 214.404 39.8764 214.33 40.2696L213.483 44.7736C213.278 45.8605 211.722 45.8605 211.517 44.7736L210.67 40.2696C210.596 39.8764 210.295 39.565 209.904 39.4782L205.394 38.4762C204.35 38.2442 204.35 36.7558 205.394 36.5238L209.904 35.5218C210.295 35.435 210.596 35.1236 210.67 34.7304L211.517 30.2264Z" fill="#FDEECC"/>
<path d="M296.019 77.9246C296.233 76.8517 297.767 76.8517 297.981 77.9246L300.095 88.543C300.174 88.9358 300.479 89.2441 300.871 89.3263L311.334 91.5213C312.394 91.7436 312.394 93.2564 311.334 93.4787L300.871 95.6737C300.479 95.7559 300.174 96.0642 300.095 96.457L297.981 107.075C297.767 108.148 296.233 108.148 296.019 107.075L293.905 96.457C293.826 96.0642 293.521 95.7559 293.129 95.6737L282.666 93.4787C281.606 93.2564 281.606 91.7436 282.666 91.5213L293.129 89.3263C293.521 89.2441 293.826 88.9358 293.905 88.543L296.019 77.9246Z" fill="#FDEECC"/>
<path d="M273.148 156.392L244.48 127.724C251.382 118.536 255.108 107.352 255.095 95.86C255.095 66.5064 231.214 42.625 201.86 42.625C172.506 42.625 148.625 66.5064 148.625 95.86C148.625 125.214 172.506 149.095 201.86 149.095C213.352 149.108 224.536 145.382 233.724 138.48L262.392 167.148C263.843 168.445 265.736 169.137 267.682 169.083C269.628 169.029 271.479 168.231 272.855 166.855C274.231 165.479 275.029 163.628 275.083 161.682C275.137 159.736 274.445 157.843 273.148 156.392ZM163.835 95.86C163.835 88.3394 166.065 80.9876 170.243 74.7344C174.422 68.4813 180.36 63.6075 187.308 60.7295C194.257 57.8515 201.902 57.0984 209.278 58.5656C216.654 60.0328 223.43 63.6544 228.748 68.9723C234.066 74.2902 237.687 81.0656 239.154 88.4417C240.622 95.8178 239.869 103.463 236.991 110.412C234.112 117.36 229.239 123.298 222.986 127.477C216.732 131.655 209.381 133.885 201.86 133.885C191.779 133.873 182.114 129.863 174.986 122.734C167.857 115.606 163.847 105.941 163.835 95.86Z" fill="#2F6B3F"/>
<path d="M237.406 99.2147C239.102 97.4396 242.127 99.0075 241.654 101.417L241.594 101.661L239.372 109.343L245.509 114.354C247.605 116.067 245.864 119.425 243.257 118.699L235.624 116.572L230.627 122.817C228.918 124.952 225.514 123.187 226.274 120.56L228.496 112.877L222.36 107.866C220.263 106.153 222.004 102.795 224.612 103.521L232.244 105.647L237.241 99.404L237.406 99.2147Z" fill="#2F6B3F" stroke="#FAF9F6" stroke-width="3"/>
<path d="M281.958 50.4165C292.34 50.4165 301.323 43.7477 304.325 33.8248C304.577 33.0227 304.348 32.129 303.752 31.5331C303.156 30.9373 302.285 30.7081 301.46 30.9602C299.673 31.4873 297.84 31.7623 296.006 31.7623C285.648 31.7623 277.215 23.329 277.215 12.9706C277.215 11.1373 277.49 9.30397 278.017 7.51647C278.138 7.11845 278.148 6.69505 278.047 6.29151C277.946 5.88797 277.737 5.51944 277.443 5.22529C277.149 4.93114 276.781 4.72243 276.377 4.62143C275.973 4.52044 275.55 4.53097 275.152 4.65189C270.348 6.10262 266.14 9.06529 263.155 13.0993C260.17 17.1333 258.566 22.0231 258.583 27.0415C258.583 39.9206 269.079 50.4165 281.958 50.4165Z" fill="#FFDF94"/>
<path d="M123.029 216V199.68H125.789V216H123.029ZM117.557 201.72V199.2H131.261V201.72H117.557ZM133.184 216V204.48H135.824V216H133.184ZM134.504 202.368C134.056 202.368 133.68 202.216 133.376 201.912C133.088 201.608 132.944 201.232 132.944 200.784C132.944 200.336 133.088 199.96 133.376 199.656C133.68 199.352 134.056 199.2 134.504 199.2C134.968 199.2 135.344 199.352 135.632 199.656C135.92 199.96 136.064 200.336 136.064 200.784C136.064 201.232 135.92 201.608 135.632 201.912C135.344 202.216 134.968 202.368 134.504 202.368ZM143.465 216.24C142.425 216.24 141.481 215.976 140.633 215.448C139.801 214.92 139.137 214.208 138.641 213.312C138.161 212.4 137.921 211.384 137.921 210.264C137.921 209.128 138.161 208.112 138.641 207.216C139.137 206.304 139.801 205.584 140.633 205.056C141.481 204.512 142.425 204.24 143.465 204.24C144.345 204.24 145.121 204.432 145.793 204.816C146.481 205.184 147.025 205.696 147.425 206.352C147.825 207.008 148.025 207.752 148.025 208.584V211.896C148.025 212.728 147.825 213.472 147.425 214.128C147.041 214.784 146.505 215.304 145.817 215.688C145.129 216.056 144.345 216.24 143.465 216.24ZM143.897 213.744C144.553 213.744 145.121 213.6 145.601 213.312C146.097 213.008 146.481 212.592 146.753 212.064C147.025 211.536 147.161 210.928 147.161 210.24C147.161 209.552 147.025 208.944 146.753 208.416C146.481 207.888 146.097 207.48 145.601 207.192C145.121 206.888 144.553 206.736 143.897 206.736C143.257 206.736 142.689 206.888 142.193 207.192C141.713 207.48 141.329 207.888 141.041 208.416C140.769 208.944 140.633 209.552 140.633 210.24C140.633 210.928 140.769 211.536 141.041 212.064C141.329 212.592 141.713 213.008 142.193 213.312C142.689 213.6 143.257 213.744 143.897 213.744ZM149.633 216H146.993V212.904L147.449 210.096L146.993 207.312V198.72H149.633V216ZM157.243 216.24C156.203 216.24 155.259 215.976 154.411 215.448C153.579 214.92 152.915 214.208 152.419 213.312C151.939 212.4 151.699 211.384 151.699 210.264C151.699 209.128 151.939 208.112 152.419 207.216C152.915 206.304 153.579 205.584 154.411 205.056C155.259 204.512 156.203 204.24 157.243 204.24C158.123 204.24 158.899 204.432 159.571 204.816C160.259 205.184 160.803 205.696 161.203 206.352C161.603 207.008 161.803 207.752 161.803 208.584V211.896C161.803 212.728 161.603 213.472 161.203 214.128C160.819 214.784 160.283 215.304 159.595 215.688C158.907 216.056 158.123 216.24 157.243 216.24ZM157.675 213.744C158.651 213.744 159.435 213.416 160.027 212.76C160.635 212.104 160.939 211.264 160.939 210.24C160.939 209.552 160.803 208.944 160.531 208.416C160.259 207.888 159.875 207.48 159.379 207.192C158.899 206.888 158.331 206.736 157.675 206.736C157.035 206.736 156.467 206.888 155.971 207.192C155.491 207.48 155.107 207.888 154.819 208.416C154.547 208.944 154.411 209.552 154.411 210.24C154.411 210.928 154.547 211.536 154.819 212.064C155.107 212.592 155.491 213.008 155.971 213.312C156.467 213.6 157.035 213.744 157.675 213.744ZM160.771 216V212.904L161.227 210.096L160.771 207.312V204.48H163.411V216H160.771ZM173.517 216L168.645 210.12L173.493 204.48H176.637L171.069 210.816L171.189 209.304L176.877 216H173.517ZM166.197 216V198.72H168.837V216H166.197ZM181.404 216L188.316 199.2H190.236L197.1 216H194.124L188.748 202.392H189.756L184.332 216H181.404ZM184.812 212.76V210.36H193.716V212.76H184.812ZM203.143 216.24C202.103 216.24 201.159 215.976 200.311 215.448C199.479 214.92 198.815 214.208 198.319 213.312C197.839 212.4 197.599 211.384 197.599 210.264C197.599 209.128 197.839 208.112 198.319 207.216C198.815 206.304 199.479 205.584 200.311 205.056C201.159 204.512 202.103 204.24 203.143 204.24C204.023 204.24 204.799 204.432 205.471 204.816C206.159 205.184 206.703 205.696 207.103 206.352C207.503 207.008 207.703 207.752 207.703 208.584V211.896C207.703 212.728 207.503 213.472 207.103 214.128C206.719 214.784 206.183 215.304 205.495 215.688C204.807 216.056 204.023 216.24 203.143 216.24ZM203.575 213.744C204.231 213.744 204.799 213.6 205.279 213.312C205.775 213.008 206.159 212.592 206.431 212.064C206.703 211.536 206.839 210.928 206.839 210.24C206.839 209.552 206.703 208.944 206.431 208.416C206.159 207.888 205.775 207.48 205.279 207.192C204.799 206.888 204.231 206.736 203.575 206.736C202.935 206.736 202.367 206.888 201.871 207.192C201.391 207.48 201.007 207.888 200.719 208.416C200.447 208.944 200.311 209.552 200.311 210.24C200.311 210.928 200.447 211.536 200.719 212.064C201.007 212.592 201.391 213.008 201.871 213.312C202.367 213.6 202.935 213.744 203.575 213.744ZM209.311 216H206.671V212.904L207.127 210.096L206.671 207.312V198.72H209.311V216ZM216.921 216.24C215.881 216.24 214.937 215.976 214.089 215.448C213.257 214.92 212.593 214.208 212.097 213.312C211.617 212.4 211.377 211.384 211.377 210.264C211.377 209.128 211.617 208.112 212.097 207.216C212.593 206.304 213.257 205.584 214.089 205.056C214.937 204.512 215.881 204.24 216.921 204.24C217.801 204.24 218.577 204.432 219.249 204.816C219.937 205.184 220.481 205.696 220.881 206.352C221.281 207.008 221.481 207.752 221.481 208.584V211.896C221.481 212.728 221.281 213.472 220.881 214.128C220.497 214.784 219.961 215.304 219.273 215.688C218.585 216.056 217.801 216.24 216.921 216.24ZM217.353 213.744C218.329 213.744 219.113 213.416 219.705 212.76C220.313 212.104 220.617 211.264 220.617 210.24C220.617 209.552 220.481 208.944 220.209 208.416C219.937 207.888 219.553 207.48 219.057 207.192C218.577 206.888 218.009 206.736 217.353 206.736C216.713 206.736 216.145 206.888 215.649 207.192C215.169 207.48 214.785 207.888 214.497 208.416C214.225 208.944 214.089 209.552 214.089 210.24C214.089 210.928 214.225 211.536 214.497 212.064C214.785 212.592 215.169 213.008 215.649 213.312C216.145 213.6 216.713 213.744 217.353 213.744ZM220.449 216V212.904L220.905 210.096L220.449 207.312V204.48H223.089V216H220.449ZM230.896 216V199.2H233.656V216H230.896ZM241.576 216V199.2H244.336V216H241.576ZM232.792 208.56V206.04H242.176V208.56H232.792ZM252.302 216.24C251.262 216.24 250.318 215.976 249.47 215.448C248.638 214.92 247.974 214.208 247.478 213.312C246.998 212.4 246.758 211.384 246.758 210.264C246.758 209.128 246.998 208.112 247.478 207.216C247.974 206.304 248.638 205.584 249.47 205.056C250.318 204.512 251.262 204.24 252.302 204.24C253.182 204.24 253.958 204.432 254.63 204.816C255.318 205.184 255.862 205.696 256.262 206.352C256.662 207.008 256.862 207.752 256.862 208.584V211.896C256.862 212.728 256.662 213.472 256.262 214.128C255.878 214.784 255.342 215.304 254.654 215.688C253.966 216.056 253.182 216.24 252.302 216.24ZM252.734 213.744C253.71 213.744 254.494 213.416 255.086 212.76C255.694 212.104 255.998 211.264 255.998 210.24C255.998 209.552 255.862 208.944 255.59 208.416C255.318 207.888 254.934 207.48 254.438 207.192C253.958 206.888 253.39 206.736 252.734 206.736C252.094 206.736 251.526 206.888 251.03 207.192C250.55 207.48 250.166 207.888 249.878 208.416C249.606 208.944 249.47 209.552 249.47 210.24C249.47 210.928 249.606 211.536 249.878 212.064C250.166 212.592 250.55 213.008 251.03 213.312C251.526 213.6 252.094 213.744 252.734 213.744ZM255.83 216V212.904L256.286 210.096L255.83 207.312V204.48H258.47V216H255.83ZM265.024 216.24C264.384 216.24 263.768 216.16 263.176 216C262.584 215.824 262.04 215.584 261.544 215.28C261.048 214.96 260.616 214.576 260.248 214.128L261.928 212.448C262.328 212.912 262.784 213.264 263.296 213.504C263.824 213.728 264.416 213.84 265.072 213.84C265.664 213.84 266.112 213.752 266.416 213.576C266.72 213.4 266.872 213.144 266.872 212.808C266.872 212.456 266.728 212.184 266.44 211.992C266.152 211.8 265.776 211.64 265.312 211.512C264.864 211.368 264.384 211.224 263.872 211.08C263.376 210.936 262.896 210.744 262.432 210.504C261.984 210.248 261.616 209.904 261.328 209.472C261.04 209.04 260.896 208.48 260.896 207.792C260.896 207.056 261.064 206.424 261.4 205.896C261.752 205.368 262.24 204.96 262.864 204.672C263.504 204.384 264.264 204.24 265.144 204.24C266.072 204.24 266.888 204.408 267.592 204.744C268.312 205.064 268.912 205.552 269.392 206.208L267.712 207.888C267.376 207.472 266.992 207.16 266.56 206.952C266.128 206.744 265.632 206.64 265.072 206.64C264.544 206.64 264.136 206.72 263.848 206.88C263.56 207.04 263.416 207.272 263.416 207.576C263.416 207.896 263.56 208.144 263.848 208.32C264.136 208.496 264.504 208.648 264.952 208.776C265.416 208.904 265.896 209.048 266.392 209.208C266.904 209.352 267.384 209.56 267.832 209.832C268.296 210.088 268.672 210.44 268.96 210.888C269.248 211.32 269.392 211.888 269.392 212.592C269.392 213.712 269 214.6 268.216 215.256C267.432 215.912 266.368 216.24 265.024 216.24ZM271.448 216V204.48H274.088V216H271.448ZM272.768 202.368C272.32 202.368 271.944 202.216 271.64 201.912C271.352 201.608 271.208 201.232 271.208 200.784C271.208 200.336 271.352 199.96 271.64 199.656C271.944 199.352 272.32 199.2 272.768 199.2C273.232 199.2 273.608 199.352 273.896 199.656C274.184 199.96 274.328 200.336 274.328 200.784C274.328 201.232 274.184 201.608 273.896 201.912C273.608 202.216 273.232 202.368 272.768 202.368ZM276.905 216V198.72H279.545V216H276.905Z" fill="#1F1F1D"/>
<path d="M10.5913 245V231.59H15.0013C16.3333 231.59 17.4913 231.866 18.4753 232.418C19.4593 232.958 20.2213 233.732 20.7613 234.74C21.3013 235.736 21.5713 236.918 21.5713 238.286C21.5713 239.642 21.3013 240.824 20.7613 241.832C20.2213 242.84 19.4593 243.62 18.4753 244.172C17.4913 244.724 16.3333 245 15.0013 245H10.5913ZM12.0313 243.65H15.0013C16.0333 243.65 16.9273 243.434 17.6833 243.002C18.4393 242.558 19.0213 241.934 19.4293 241.13C19.8493 240.326 20.0593 239.378 20.0593 238.286C20.0593 237.194 19.8493 236.252 19.4293 235.46C19.0093 234.656 18.4213 234.038 17.6653 233.606C16.9093 233.162 16.0213 232.94 15.0013 232.94H12.0313V243.65ZM26.2589 245.216C25.6469 245.216 25.1009 245.102 24.6209 244.874C24.1409 244.634 23.7629 244.31 23.4869 243.902C23.2109 243.494 23.0729 243.026 23.0729 242.498C23.0729 241.994 23.1809 241.538 23.3969 241.13C23.6129 240.71 23.9489 240.356 24.4049 240.068C24.8609 239.78 25.4429 239.576 26.1509 239.456L29.9309 238.826V240.05L26.4749 240.626C25.7789 240.746 25.2749 240.968 24.9629 241.292C24.6629 241.616 24.5129 242 24.5129 242.444C24.5129 242.876 24.6809 243.242 25.0169 243.542C25.3649 243.842 25.8089 243.992 26.3489 243.992C27.0089 243.992 27.5849 243.854 28.0769 243.578C28.5689 243.29 28.9529 242.906 29.2289 242.426C29.5049 241.946 29.6429 241.412 29.6429 240.824V238.376C29.6429 237.8 29.4329 237.332 29.0129 236.972C28.5929 236.612 28.0469 236.432 27.3749 236.432C26.7869 236.432 26.2709 236.582 25.8269 236.882C25.3829 237.17 25.0529 237.548 24.8369 238.016L23.6129 237.35C23.7929 236.942 24.0749 236.57 24.4589 236.234C24.8549 235.898 25.3049 235.634 25.8089 235.442C26.3129 235.238 26.8349 235.136 27.3749 235.136C28.0829 235.136 28.7069 235.274 29.2469 235.55C29.7989 235.826 30.2249 236.21 30.5249 236.702C30.8369 237.182 30.9929 237.74 30.9929 238.376V245H29.6429V243.074L29.8409 243.272C29.6729 243.632 29.4089 243.962 29.0489 244.262C28.7009 244.55 28.2869 244.784 27.8069 244.964C27.3389 245.132 26.8229 245.216 26.2589 245.216ZM37.0096 245.216C36.0856 245.216 35.2756 244.982 34.5796 244.514C33.8836 244.046 33.3796 243.41 33.0676 242.606L34.2016 242.066C34.4776 242.654 34.8616 243.122 35.3536 243.47C35.8576 243.818 36.4096 243.992 37.0096 243.992C37.5856 243.992 38.0716 243.854 38.4676 243.578C38.8636 243.29 39.0616 242.918 39.0616 242.462C39.0616 242.126 38.9656 241.862 38.7736 241.67C38.5816 241.466 38.3596 241.31 38.1076 241.202C37.8556 241.094 37.6336 241.016 37.4416 240.968L36.0556 240.572C35.1676 240.32 34.5256 239.966 34.1296 239.51C33.7336 239.054 33.5356 238.526 33.5356 237.926C33.5356 237.362 33.6796 236.87 33.9676 236.45C34.2556 236.03 34.6456 235.706 35.1376 235.478C35.6296 235.25 36.1756 235.136 36.7756 235.136C37.5916 235.136 38.3296 235.352 38.9896 235.784C39.6616 236.204 40.1356 236.792 40.4116 237.548L39.2596 238.088C39.0196 237.548 38.6716 237.128 38.2156 236.828C37.7716 236.516 37.2736 236.36 36.7216 236.36C36.1816 236.36 35.7496 236.498 35.4256 236.774C35.1016 237.05 34.9396 237.398 34.9396 237.818C34.9396 238.142 35.0236 238.4 35.1916 238.592C35.3596 238.784 35.5516 238.928 35.7676 239.024C35.9956 239.12 36.1936 239.192 36.3616 239.24L37.9636 239.708C38.7436 239.936 39.3496 240.29 39.7816 240.77C40.2256 241.25 40.4476 241.814 40.4476 242.462C40.4476 242.99 40.2976 243.464 39.9976 243.884C39.7096 244.304 39.3076 244.634 38.7916 244.874C38.2756 245.102 37.6816 245.216 37.0096 245.216ZM42.7118 245V231.374H44.0618V237.224L43.7558 237.152C43.9958 236.528 44.3858 236.036 44.9258 235.676C45.4778 235.316 46.1138 235.136 46.8338 235.136C47.5178 235.136 48.1298 235.292 48.6698 235.604C49.2218 235.916 49.6538 236.348 49.9658 236.9C50.2898 237.44 50.4518 238.052 50.4518 238.736V245H49.1018V239.258C49.1018 238.67 48.9938 238.172 48.7778 237.764C48.5618 237.356 48.2618 237.044 47.8778 236.828C47.5058 236.6 47.0798 236.486 46.5998 236.486C46.1198 236.486 45.6878 236.6 45.3038 236.828C44.9198 237.044 44.6138 237.362 44.3858 237.782C44.1698 238.19 44.0618 238.682 44.0618 239.258V245H42.7118ZM57.8002 245.216C56.9722 245.216 56.2222 245.03 55.5502 244.658C54.8902 244.274 54.3922 243.734 54.0562 243.038L54.2722 242.84V245H52.9222V231.374H54.2722V237.512L54.0562 237.134C54.4402 236.522 54.9502 236.036 55.5862 235.676C56.2342 235.316 56.9722 235.136 57.8002 235.136C58.7122 235.136 59.5222 235.358 60.2302 235.802C60.9502 236.234 61.5142 236.828 61.9222 237.584C62.3422 238.34 62.5522 239.204 62.5522 240.176C62.5522 241.136 62.3422 242 61.9222 242.768C61.5142 243.524 60.9502 244.124 60.2302 244.568C59.5222 245 58.7122 245.216 57.8002 245.216ZM57.7282 243.866C58.3762 243.866 58.9522 243.704 59.4562 243.38C59.9722 243.056 60.3742 242.618 60.6622 242.066C60.9622 241.502 61.1122 240.872 61.1122 240.176C61.1122 239.468 60.9622 238.838 60.6622 238.286C60.3742 237.734 59.9722 237.296 59.4562 236.972C58.9522 236.648 58.3762 236.486 57.7282 236.486C57.0802 236.486 56.4922 236.648 55.9642 236.972C55.4482 237.296 55.0342 237.74 54.7222 238.304C54.4222 238.856 54.2722 239.48 54.2722 240.176C54.2722 240.872 54.4222 241.502 54.7222 242.066C55.0342 242.618 55.4482 243.056 55.9642 243.38C56.4922 243.704 57.0802 243.866 57.7282 243.866ZM69.3381 245.216C68.4261 245.216 67.5981 245 66.8541 244.568C66.1101 244.124 65.5161 243.524 65.0721 242.768C64.6401 242 64.4241 241.13 64.4241 240.158C64.4241 239.198 64.6401 238.34 65.0721 237.584C65.5041 236.828 66.0861 236.234 66.8181 235.802C67.5621 235.358 68.4021 235.136 69.3381 235.136C70.2741 235.136 71.1081 235.352 71.8401 235.784C72.5841 236.216 73.1661 236.81 73.5861 237.566C74.0181 238.322 74.2341 239.186 74.2341 240.158C74.2341 241.142 74.0121 242.018 73.5681 242.786C73.1241 243.542 72.5301 244.136 71.7861 244.568C71.0541 245 70.2381 245.216 69.3381 245.216ZM69.3381 243.866C69.9861 243.866 70.5681 243.704 71.0841 243.38C71.6121 243.056 72.0261 242.612 72.3261 242.048C72.6381 241.484 72.7941 240.854 72.7941 240.158C72.7941 239.462 72.6381 238.838 72.3261 238.286C72.0261 237.734 71.6121 237.296 71.0841 236.972C70.5681 236.648 69.9861 236.486 69.3381 236.486C68.6901 236.486 68.1021 236.648 67.5741 236.972C67.0581 237.296 66.6441 237.734 66.3321 238.286C66.0201 238.838 65.8641 239.462 65.8641 240.158C65.8641 240.854 66.0201 241.484 66.3321 242.048C66.6441 242.612 67.0581 243.056 67.5741 243.38C68.1021 243.704 68.6901 243.866 69.3381 243.866ZM79.297 245.216C78.685 245.216 78.139 245.102 77.659 244.874C77.179 244.634 76.801 244.31 76.525 243.902C76.249 243.494 76.111 243.026 76.111 242.498C76.111 241.994 76.219 241.538 76.435 241.13C76.651 240.71 76.987 240.356 77.443 240.068C77.899 239.78 78.481 239.576 79.189 239.456L82.969 238.826V240.05L79.513 240.626C78.817 240.746 78.313 240.968 78.001 241.292C77.701 241.616 77.551 242 77.551 242.444C77.551 242.876 77.719 243.242 78.055 243.542C78.403 243.842 78.847 243.992 79.387 243.992C80.047 243.992 80.623 243.854 81.115 243.578C81.607 243.29 81.991 242.906 82.267 242.426C82.543 241.946 82.681 241.412 82.681 240.824V238.376C82.681 237.8 82.471 237.332 82.051 236.972C81.631 236.612 81.085 236.432 80.413 236.432C79.825 236.432 79.309 236.582 78.865 236.882C78.421 237.17 78.091 237.548 77.875 238.016L76.651 237.35C76.831 236.942 77.113 236.57 77.497 236.234C77.893 235.898 78.343 235.634 78.847 235.442C79.351 235.238 79.873 235.136 80.413 235.136C81.121 235.136 81.745 235.274 82.285 235.55C82.837 235.826 83.263 236.21 83.563 236.702C83.875 237.182 84.031 237.74 84.031 238.376V245H82.681V243.074L82.879 243.272C82.711 243.632 82.447 243.962 82.087 244.262C81.739 244.55 81.325 244.784 80.845 244.964C80.377 245.132 79.861 245.216 79.297 245.216ZM86.6998 245V235.352H88.0498V236.936L87.8698 236.702C88.0978 236.246 88.4398 235.886 88.8958 235.622C89.3638 235.358 89.9278 235.226 90.5878 235.226H91.1998V236.576H90.3538C89.6578 236.576 89.0998 236.792 88.6798 237.224C88.2598 237.656 88.0498 238.268 88.0498 239.06V245H86.6998ZM97.0298 245.216C96.1298 245.216 95.3198 245 94.5998 244.568C93.8798 244.124 93.3098 243.524 92.8898 242.768C92.4818 242 92.2778 241.136 92.2778 240.176C92.2778 239.204 92.4818 238.34 92.8898 237.584C93.3098 236.828 93.8738 236.234 94.5818 235.802C95.3018 235.358 96.1178 235.136 97.0298 235.136C97.8578 235.136 98.5958 235.316 99.2438 235.676C99.8918 236.036 100.402 236.522 100.774 237.134L100.558 237.512V231.374H101.908V245H100.558V242.84L100.774 243.038C100.438 243.734 99.9338 244.274 99.2618 244.658C98.6018 245.03 97.8578 245.216 97.0298 245.216ZM97.1018 243.866C97.7498 243.866 98.3318 243.704 98.8478 243.38C99.3758 243.056 99.7898 242.618 100.09 242.066C100.402 241.502 100.558 240.872 100.558 240.176C100.558 239.48 100.402 238.856 100.09 238.304C99.7898 237.74 99.3758 237.296 98.8478 236.972C98.3318 236.648 97.7498 236.486 97.1018 236.486C96.4658 236.486 95.8898 236.648 95.3738 236.972C94.8578 237.296 94.4498 237.734 94.1498 238.286C93.8618 238.838 93.7178 239.468 93.7178 240.176C93.7178 240.872 93.8618 241.502 94.1498 242.066C94.4498 242.618 94.8518 243.056 95.3558 243.38C95.8718 243.704 96.4538 243.866 97.1018 243.866ZM107.72 245V231.59H116.36V232.94H109.16V237.602H116V238.952H109.16V243.65H116.36V245H107.72ZM118.436 245V235.352H119.786V237.224L119.48 237.152C119.72 236.528 120.11 236.036 120.65 235.676C121.202 235.316 121.838 235.136 122.558 235.136C123.242 235.136 123.854 235.292 124.394 235.604C124.946 235.916 125.378 236.348 125.69 236.9C126.014 237.44 126.176 238.052 126.176 238.736V245H124.826V239.258C124.826 238.67 124.718 238.172 124.502 237.764C124.298 237.356 124.004 237.044 123.62 236.828C123.248 236.6 122.816 236.486 122.324 236.486C121.832 236.486 121.394 236.6 121.01 236.828C120.626 237.044 120.326 237.362 120.11 237.782C119.894 238.19 119.786 238.682 119.786 239.258V245H118.436ZM133.038 245.216C132.138 245.216 131.322 245 130.59 244.568C129.87 244.124 129.3 243.518 128.88 242.75C128.46 241.982 128.25 241.112 128.25 240.14C128.25 239.168 128.454 238.31 128.862 237.566C129.27 236.81 129.822 236.216 130.518 235.784C131.226 235.352 132.018 235.136 132.894 235.136C133.59 235.136 134.208 235.268 134.748 235.532C135.3 235.784 135.768 236.132 136.152 236.576C136.536 237.008 136.83 237.5 137.034 238.052C137.238 238.592 137.34 239.15 137.34 239.726C137.34 239.846 137.334 239.984 137.322 240.14C137.31 240.284 137.292 240.434 137.268 240.59H129.114V239.33H136.494L135.846 239.87C135.954 239.21 135.876 238.622 135.612 238.106C135.36 237.578 134.994 237.164 134.514 236.864C134.034 236.552 133.494 236.396 132.894 236.396C132.294 236.396 131.736 236.552 131.22 236.864C130.716 237.176 130.32 237.614 130.032 238.178C129.744 238.73 129.63 239.39 129.69 240.158C129.63 240.926 129.75 241.598 130.05 242.174C130.362 242.738 130.782 243.176 131.31 243.488C131.85 243.8 132.426 243.956 133.038 243.956C133.746 243.956 134.34 243.788 134.82 243.452C135.3 243.116 135.69 242.696 135.99 242.192L137.142 242.804C136.95 243.236 136.656 243.638 136.26 244.01C135.864 244.37 135.39 244.664 134.838 244.892C134.298 245.108 133.698 245.216 133.038 245.216ZM139.612 245V235.352H140.962V236.936L140.782 236.702C141.01 236.246 141.352 235.886 141.808 235.622C142.276 235.358 142.84 235.226 143.5 235.226H144.112V236.576H143.266C142.57 236.576 142.012 236.792 141.592 237.224C141.172 237.656 140.962 238.268 140.962 239.06V245H139.612ZM150.158 248.96C149.498 248.96 148.886 248.858 148.322 248.654C147.77 248.45 147.29 248.168 146.882 247.808C146.486 247.46 146.18 247.052 145.964 246.584L147.206 245.918C147.398 246.374 147.74 246.77 148.232 247.106C148.724 247.442 149.354 247.61 150.122 247.61C150.71 247.61 151.25 247.496 151.742 247.268C152.234 247.04 152.63 246.704 152.93 246.26C153.23 245.816 153.38 245.27 153.38 244.622V242.48L153.596 242.678C153.26 243.374 152.762 243.914 152.102 244.298C151.442 244.67 150.722 244.856 149.942 244.856C149.042 244.856 148.232 244.64 147.512 244.208C146.792 243.776 146.222 243.194 145.802 242.462C145.394 241.718 145.19 240.896 145.19 239.996C145.19 239.084 145.394 238.262 145.802 237.53C146.222 236.798 146.786 236.216 147.494 235.784C148.214 235.352 149.03 235.136 149.942 235.136C150.722 235.136 151.43 235.316 152.066 235.676C152.714 236.036 153.224 236.522 153.596 237.134L153.38 237.512V235.352H154.73V244.622C154.73 245.45 154.532 246.188 154.136 246.836C153.752 247.496 153.212 248.012 152.516 248.384C151.832 248.768 151.046 248.96 150.158 248.96ZM150.014 243.506C150.638 243.506 151.202 243.35 151.706 243.038C152.21 242.714 152.612 242.288 152.912 241.76C153.224 241.22 153.38 240.632 153.38 239.996C153.38 239.36 153.224 238.778 152.912 238.25C152.612 237.71 152.21 237.284 151.706 236.972C151.202 236.648 150.638 236.486 150.014 236.486C149.378 236.486 148.802 236.648 148.286 236.972C147.77 237.284 147.362 237.704 147.062 238.232C146.774 238.76 146.63 239.348 146.63 239.996C146.63 240.632 146.774 241.22 147.062 241.76C147.362 242.288 147.764 242.714 148.268 243.038C148.784 243.35 149.366 243.506 150.014 243.506ZM157.396 245V235.352H158.746V245H157.396ZM157.396 233.57V231.59H158.746V233.57H157.396ZM168.042 245.108C167.178 245.108 166.512 244.856 166.044 244.352C165.576 243.848 165.342 243.128 165.342 242.192V236.702H163.56V235.352H164.01C164.418 235.352 164.742 235.22 164.982 234.956C165.222 234.68 165.342 234.338 165.342 233.93V233.12H166.692V235.352H168.816V236.702H166.692V242.192C166.692 242.516 166.74 242.804 166.836 243.056C166.932 243.296 167.094 243.488 167.322 243.632C167.562 243.776 167.88 243.848 168.276 243.848C168.372 243.848 168.486 243.842 168.618 243.83C168.75 243.818 168.864 243.806 168.96 243.794V245C168.816 245.036 168.654 245.06 168.474 245.072C168.294 245.096 168.15 245.108 168.042 245.108ZM175.263 245.216C174.363 245.216 173.547 245 172.815 244.568C172.095 244.124 171.525 243.518 171.105 242.75C170.685 241.982 170.475 241.112 170.475 240.14C170.475 239.168 170.679 238.31 171.087 237.566C171.495 236.81 172.047 236.216 172.743 235.784C173.451 235.352 174.243 235.136 175.119 235.136C175.815 235.136 176.433 235.268 176.973 235.532C177.525 235.784 177.993 236.132 178.377 236.576C178.761 237.008 179.055 237.5 179.259 238.052C179.463 238.592 179.565 239.15 179.565 239.726C179.565 239.846 179.559 239.984 179.547 240.14C179.535 240.284 179.517 240.434 179.493 240.59H171.339V239.33H178.719L178.071 239.87C178.179 239.21 178.101 238.622 177.837 238.106C177.585 237.578 177.219 237.164 176.739 236.864C176.259 236.552 175.719 236.396 175.119 236.396C174.519 236.396 173.961 236.552 173.445 236.864C172.941 237.176 172.545 237.614 172.257 238.178C171.969 238.73 171.855 239.39 171.915 240.158C171.855 240.926 171.975 241.598 172.275 242.174C172.587 242.738 173.007 243.176 173.535 243.488C174.075 243.8 174.651 243.956 175.263 243.956C175.971 243.956 176.565 243.788 177.045 243.452C177.525 243.116 177.915 242.696 178.215 242.192L179.367 242.804C179.175 243.236 178.881 243.638 178.485 244.01C178.089 244.37 177.615 244.664 177.063 244.892C176.523 245.108 175.923 245.216 175.263 245.216ZM181.837 245V235.352H183.187V236.936L183.007 236.702C183.235 236.246 183.577 235.886 184.033 235.622C184.501 235.358 185.065 235.226 185.725 235.226H186.337V236.576H185.491C184.795 236.576 184.237 236.792 183.817 237.224C183.397 237.656 183.187 238.268 183.187 239.06V245H181.837ZM191.159 245.216C190.235 245.216 189.425 244.982 188.729 244.514C188.033 244.046 187.529 243.41 187.217 242.606L188.351 242.066C188.627 242.654 189.011 243.122 189.503 243.47C190.007 243.818 190.559 243.992 191.159 243.992C191.735 243.992 192.221 243.854 192.617 243.578C193.013 243.29 193.211 242.918 193.211 242.462C193.211 242.126 193.115 241.862 192.923 241.67C192.731 241.466 192.509 241.31 192.257 241.202C192.005 241.094 191.783 241.016 191.591 240.968L190.205 240.572C189.317 240.32 188.675 239.966 188.279 239.51C187.883 239.054 187.685 238.526 187.685 237.926C187.685 237.362 187.829 236.87 188.117 236.45C188.405 236.03 188.795 235.706 189.287 235.478C189.779 235.25 190.325 235.136 190.925 235.136C191.741 235.136 192.479 235.352 193.139 235.784C193.811 236.204 194.285 236.792 194.561 237.548L193.409 238.088C193.169 237.548 192.821 237.128 192.365 236.828C191.921 236.516 191.423 236.36 190.871 236.36C190.331 236.36 189.899 236.498 189.575 236.774C189.251 237.05 189.089 237.398 189.089 237.818C189.089 238.142 189.173 238.4 189.341 238.592C189.509 238.784 189.701 238.928 189.917 239.024C190.145 239.12 190.343 239.192 190.511 239.24L192.113 239.708C192.893 239.936 193.499 240.29 193.931 240.77C194.375 241.25 194.597 241.814 194.597 242.462C194.597 242.99 194.447 243.464 194.147 243.884C193.859 244.304 193.457 244.634 192.941 244.874C192.425 245.102 191.831 245.216 191.159 245.216ZM201.254 245.216C200.354 245.216 199.538 245 198.806 244.568C198.086 244.124 197.516 243.518 197.096 242.75C196.676 241.982 196.466 241.112 196.466 240.14C196.466 239.168 196.67 238.31 197.078 237.566C197.486 236.81 198.038 236.216 198.734 235.784C199.442 235.352 200.234 235.136 201.11 235.136C201.806 235.136 202.424 235.268 202.964 235.532C203.516 235.784 203.984 236.132 204.368 236.576C204.752 237.008 205.046 237.5 205.25 238.052C205.454 238.592 205.556 239.15 205.556 239.726C205.556 239.846 205.55 239.984 205.538 240.14C205.526 240.284 205.508 240.434 205.484 240.59H197.33V239.33H204.71L204.062 239.87C204.17 239.21 204.092 238.622 203.828 238.106C203.576 237.578 203.21 237.164 202.73 236.864C202.25 236.552 201.71 236.396 201.11 236.396C200.51 236.396 199.952 236.552 199.436 236.864C198.932 237.176 198.536 237.614 198.248 238.178C197.96 238.73 197.846 239.39 197.906 240.158C197.846 240.926 197.966 241.598 198.266 242.174C198.578 242.738 198.998 243.176 199.526 243.488C200.066 243.8 200.642 243.956 201.254 243.956C201.962 243.956 202.556 243.788 203.036 243.452C203.516 243.116 203.906 242.696 204.206 242.192L205.358 242.804C205.166 243.236 204.872 243.638 204.476 244.01C204.08 244.37 203.606 244.664 203.054 244.892C202.514 245.108 201.914 245.216 201.254 245.216ZM212.184 245.216C211.284 245.216 210.474 245 209.754 244.568C209.034 244.124 208.464 243.524 208.044 242.768C207.636 242 207.432 241.136 207.432 240.176C207.432 239.204 207.636 238.34 208.044 237.584C208.464 236.828 209.028 236.234 209.736 235.802C210.456 235.358 211.272 235.136 212.184 235.136C213.012 235.136 213.75 235.316 214.398 235.676C215.046 236.036 215.556 236.522 215.928 237.134L215.712 237.512V231.374H217.062V245H215.712V242.84L215.928 243.038C215.592 243.734 215.088 244.274 214.416 244.658C213.756 245.03 213.012 245.216 212.184 245.216ZM212.256 243.866C212.904 243.866 213.486 243.704 214.002 243.38C214.53 243.056 214.944 242.618 215.244 242.066C215.556 241.502 215.712 240.872 215.712 240.176C215.712 239.48 215.556 238.856 215.244 238.304C214.944 237.74 214.53 237.296 214.002 236.972C213.486 236.648 212.904 236.486 212.256 236.486C211.62 236.486 211.044 236.648 210.528 236.972C210.012 237.296 209.604 237.734 209.304 238.286C209.016 238.838 208.872 239.468 208.872 240.176C208.872 240.872 209.016 241.502 209.304 242.066C209.604 242.618 210.006 243.056 210.51 243.38C211.026 243.704 211.608 243.866 212.256 243.866ZM219.726 245V235.352H221.076V245H219.726ZM219.726 233.57V231.59H221.076V233.57H219.726ZM226.521 245.216C225.909 245.216 225.363 245.102 224.883 244.874C224.403 244.634 224.025 244.31 223.749 243.902C223.473 243.494 223.335 243.026 223.335 242.498C223.335 241.994 223.443 241.538 223.659 241.13C223.875 240.71 224.211 240.356 224.667 240.068C225.123 239.78 225.705 239.576 226.413 239.456L230.193 238.826V240.05L226.737 240.626C226.041 240.746 225.537 240.968 225.225 241.292C224.925 241.616 224.775 242 224.775 242.444C224.775 242.876 224.943 243.242 225.279 243.542C225.627 243.842 226.071 243.992 226.611 243.992C227.271 243.992 227.847 243.854 228.339 243.578C228.831 243.29 229.215 242.906 229.491 242.426C229.767 241.946 229.905 241.412 229.905 240.824V238.376C229.905 237.8 229.695 237.332 229.275 236.972C228.855 236.612 228.309 236.432 227.637 236.432C227.049 236.432 226.533 236.582 226.089 236.882C225.645 237.17 225.315 237.548 225.099 238.016L223.875 237.35C224.055 236.942 224.337 236.57 224.721 236.234C225.117 235.898 225.567 235.634 226.071 235.442C226.575 235.238 227.097 235.136 227.637 235.136C228.345 235.136 228.969 235.274 229.509 235.55C230.061 235.826 230.487 236.21 230.787 236.702C231.099 237.182 231.255 237.74 231.255 238.376V245H229.905V243.074L230.103 243.272C229.935 243.632 229.671 243.962 229.311 244.262C228.963 244.55 228.549 244.784 228.069 244.964C227.601 245.132 227.085 245.216 226.521 245.216ZM240.222 245.216C239.298 245.216 238.488 244.982 237.792 244.514C237.096 244.046 236.592 243.41 236.28 242.606L237.414 242.066C237.69 242.654 238.074 243.122 238.566 243.47C239.07 243.818 239.622 243.992 240.222 243.992C240.798 243.992 241.284 243.854 241.68 243.578C242.076 243.29 242.274 242.918 242.274 242.462C242.274 242.126 242.178 241.862 241.986 241.67C241.794 241.466 241.572 241.31 241.32 241.202C241.068 241.094 240.846 241.016 240.654 240.968L239.268 240.572C238.38 240.32 237.738 239.966 237.342 239.51C236.946 239.054 236.748 238.526 236.748 237.926C236.748 237.362 236.892 236.87 237.18 236.45C237.468 236.03 237.858 235.706 238.35 235.478C238.842 235.25 239.388 235.136 239.988 235.136C240.804 235.136 241.542 235.352 242.202 235.784C242.874 236.204 243.348 236.792 243.624 237.548L242.472 238.088C242.232 237.548 241.884 237.128 241.428 236.828C240.984 236.516 240.486 236.36 239.934 236.36C239.394 236.36 238.962 236.498 238.638 236.774C238.314 237.05 238.152 237.398 238.152 237.818C238.152 238.142 238.236 238.4 238.404 238.592C238.572 238.784 238.764 238.928 238.98 239.024C239.208 239.12 239.406 239.192 239.574 239.24L241.176 239.708C241.956 239.936 242.562 240.29 242.994 240.77C243.438 241.25 243.66 241.814 243.66 242.462C243.66 242.99 243.51 243.464 243.21 243.884C242.922 244.304 242.52 244.634 242.004 244.874C241.488 245.102 240.894 245.216 240.222 245.216ZM250.317 245.216C249.417 245.216 248.601 245 247.869 244.568C247.149 244.124 246.579 243.518 246.159 242.75C245.739 241.982 245.529 241.112 245.529 240.14C245.529 239.168 245.733 238.31 246.141 237.566C246.549 236.81 247.101 236.216 247.797 235.784C248.505 235.352 249.297 235.136 250.173 235.136C250.869 235.136 251.487 235.268 252.027 235.532C252.579 235.784 253.047 236.132 253.431 236.576C253.815 237.008 254.109 237.5 254.313 238.052C254.517 238.592 254.619 239.15 254.619 239.726C254.619 239.846 254.613 239.984 254.601 240.14C254.589 240.284 254.571 240.434 254.547 240.59H246.393V239.33H253.773L253.125 239.87C253.233 239.21 253.155 238.622 252.891 238.106C252.639 237.578 252.273 237.164 251.793 236.864C251.313 236.552 250.773 236.396 250.173 236.396C249.573 236.396 249.015 236.552 248.499 236.864C247.995 237.176 247.599 237.614 247.311 238.178C247.023 238.73 246.909 239.39 246.969 240.158C246.909 240.926 247.029 241.598 247.329 242.174C247.641 242.738 248.061 243.176 248.589 243.488C249.129 243.8 249.705 243.956 250.317 243.956C251.025 243.956 251.619 243.788 252.099 243.452C252.579 243.116 252.969 242.696 253.269 242.192L254.421 242.804C254.229 243.236 253.935 243.638 253.539 244.01C253.143 244.37 252.669 244.664 252.117 244.892C251.577 245.108 250.977 245.216 250.317 245.216ZM260.581 245.108C259.717 245.108 259.051 244.856 258.583 244.352C258.115 243.848 257.881 243.128 257.881 242.192V236.702H256.099V235.352H256.549C256.957 235.352 257.281 235.22 257.521 234.956C257.761 234.68 257.881 234.338 257.881 233.93V233.12H259.231V235.352H261.355V236.702H259.231V242.192C259.231 242.516 259.279 242.804 259.375 243.056C259.471 243.296 259.633 243.488 259.861 243.632C260.101 243.776 260.419 243.848 260.815 243.848C260.911 243.848 261.025 243.842 261.157 243.83C261.289 243.818 261.403 243.806 261.499 243.794V245C261.355 245.036 261.193 245.06 261.013 245.072C260.833 245.096 260.689 245.108 260.581 245.108ZM267.802 245.216C266.902 245.216 266.086 245 265.354 244.568C264.634 244.124 264.064 243.518 263.644 242.75C263.224 241.982 263.014 241.112 263.014 240.14C263.014 239.168 263.218 238.31 263.626 237.566C264.034 236.81 264.586 236.216 265.282 235.784C265.99 235.352 266.782 235.136 267.658 235.136C268.354 235.136 268.972 235.268 269.512 235.532C270.064 235.784 270.532 236.132 270.916 236.576C271.3 237.008 271.594 237.5 271.798 238.052C272.002 238.592 272.104 239.15 272.104 239.726C272.104 239.846 272.098 239.984 272.086 240.14C272.074 240.284 272.056 240.434 272.032 240.59H263.878V239.33H271.258L270.61 239.87C270.718 239.21 270.64 238.622 270.376 238.106C270.124 237.578 269.758 237.164 269.278 236.864C268.798 236.552 268.258 236.396 267.658 236.396C267.058 236.396 266.5 236.552 265.984 236.864C265.48 237.176 265.084 237.614 264.796 238.178C264.508 238.73 264.394 239.39 264.454 240.158C264.394 240.926 264.514 241.598 264.814 242.174C265.126 242.738 265.546 243.176 266.074 243.488C266.614 243.8 267.19 243.956 267.802 243.956C268.51 243.956 269.104 243.788 269.584 243.452C270.064 243.116 270.454 242.696 270.754 242.192L271.906 242.804C271.714 243.236 271.42 243.638 271.024 244.01C270.628 244.37 270.154 244.664 269.602 244.892C269.062 245.108 268.462 245.216 267.802 245.216ZM274.376 245V231.374H275.726V245H274.376ZM281.171 245.216C280.559 245.216 280.013 245.102 279.533 244.874C279.053 244.634 278.675 244.31 278.399 243.902C278.123 243.494 277.985 243.026 277.985 242.498C277.985 241.994 278.093 241.538 278.309 241.13C278.525 240.71 278.861 240.356 279.317 240.068C279.773 239.78 280.355 239.576 281.063 239.456L284.843 238.826V240.05L281.387 240.626C280.691 240.746 280.187 240.968 279.875 241.292C279.575 241.616 279.425 242 279.425 242.444C279.425 242.876 279.593 243.242 279.929 243.542C280.277 243.842 280.721 243.992 281.261 243.992C281.921 243.992 282.497 243.854 282.989 243.578C283.481 243.29 283.865 242.906 284.141 242.426C284.417 241.946 284.555 241.412 284.555 240.824V238.376C284.555 237.8 284.345 237.332 283.925 236.972C283.505 236.612 282.959 236.432 282.287 236.432C281.699 236.432 281.183 236.582 280.739 236.882C280.295 237.17 279.965 237.548 279.749 238.016L278.525 237.35C278.705 236.942 278.987 236.57 279.371 236.234C279.767 235.898 280.217 235.634 280.721 235.442C281.225 235.238 281.747 235.136 282.287 235.136C282.995 235.136 283.619 235.274 284.159 235.55C284.711 235.826 285.137 236.21 285.437 236.702C285.749 237.182 285.905 237.74 285.905 238.376V245H284.555V243.074L284.753 243.272C284.585 243.632 284.321 243.962 283.961 244.262C283.613 244.55 283.199 244.784 282.719 244.964C282.251 245.132 281.735 245.216 281.171 245.216ZM288.574 245V231.374H289.924V237.224L289.618 237.152C289.858 236.528 290.248 236.036 290.788 235.676C291.34 235.316 291.976 235.136 292.696 235.136C293.38 235.136 293.992 235.292 294.532 235.604C295.084 235.916 295.516 236.348 295.828 236.9C296.152 237.44 296.314 238.052 296.314 238.736V245H294.964V239.258C294.964 238.67 294.856 238.172 294.64 237.764C294.424 237.356 294.124 237.044 293.74 236.828C293.368 236.6 292.942 236.486 292.462 236.486C291.982 236.486 291.55 236.6 291.166 236.828C290.782 237.044 290.476 237.362 290.248 237.782C290.032 238.19 289.924 238.682 289.924 239.258V245H288.574ZM301.735 245V231.374H303.085V240.914L302.509 240.824L307.927 235.352H309.673L305.893 239.222L310.015 245H308.395L304.525 239.654L305.389 239.726L302.635 242.57L303.085 241.454V245H301.735ZM314.278 245.216C313.666 245.216 313.12 245.102 312.64 244.874C312.16 244.634 311.782 244.31 311.506 243.902C311.23 243.494 311.092 243.026 311.092 242.498C311.092 241.994 311.2 241.538 311.416 241.13C311.632 240.71 311.968 240.356 312.424 240.068C312.88 239.78 313.462 239.576 314.17 239.456L317.95 238.826V240.05L314.494 240.626C313.798 240.746 313.294 240.968 312.982 241.292C312.682 241.616 312.532 242 312.532 242.444C312.532 242.876 312.7 243.242 313.036 243.542C313.384 243.842 313.828 243.992 314.368 243.992C315.028 243.992 315.604 243.854 316.096 243.578C316.588 243.29 316.972 242.906 317.248 242.426C317.524 241.946 317.662 241.412 317.662 240.824V238.376C317.662 237.8 317.452 237.332 317.032 236.972C316.612 236.612 316.066 236.432 315.394 236.432C314.806 236.432 314.29 236.582 313.846 236.882C313.402 237.17 313.072 237.548 312.856 238.016L311.632 237.35C311.812 236.942 312.094 236.57 312.478 236.234C312.874 235.898 313.324 235.634 313.828 235.442C314.332 235.238 314.854 235.136 315.394 235.136C316.102 235.136 316.726 235.274 317.266 235.55C317.818 235.826 318.244 236.21 318.544 236.702C318.856 237.182 319.012 237.74 319.012 238.376V245H317.662V243.074L317.86 243.272C317.692 243.632 317.428 243.962 317.068 244.262C316.72 244.55 316.306 244.784 315.826 244.964C315.358 245.132 314.842 245.216 314.278 245.216ZM321.681 245V235.352H323.031V237.188L322.815 236.918C323.079 236.354 323.469 235.916 323.985 235.604C324.513 235.292 325.089 235.136 325.713 235.136C326.457 235.136 327.129 235.346 327.729 235.766C328.329 236.186 328.755 236.732 329.007 237.404L328.629 237.422C328.869 236.678 329.283 236.114 329.871 235.73C330.471 235.334 331.131 235.136 331.851 235.136C332.499 235.136 333.093 235.292 333.633 235.604C334.185 235.916 334.623 236.348 334.947 236.9C335.283 237.44 335.451 238.052 335.451 238.736V245H334.101V239.258C334.101 238.67 333.993 238.172 333.777 237.764C333.573 237.356 333.291 237.044 332.931 236.828C332.571 236.6 332.157 236.486 331.689 236.486C331.233 236.486 330.819 236.6 330.447 236.828C330.075 237.044 329.781 237.362 329.565 237.782C329.349 238.19 329.241 238.682 329.241 239.258V245H327.891V239.258C327.891 238.67 327.783 238.172 327.567 237.764C327.363 237.356 327.081 237.044 326.721 236.828C326.361 236.6 325.947 236.486 325.479 236.486C325.011 236.486 324.591 236.6 324.219 236.828C323.859 237.044 323.571 237.362 323.355 237.782C323.139 238.19 323.031 238.682 323.031 239.258V245H321.681ZM337.921 248.6V235.352H339.271V237.512L339.055 237.134C339.439 236.522 339.949 236.036 340.585 235.676C341.233 235.316 341.971 235.136 342.799 235.136C343.711 235.136 344.521 235.358 345.229 235.802C345.949 236.234 346.513 236.828 346.921 237.584C347.341 238.34 347.551 239.204 347.551 240.176C347.551 241.136 347.341 242 346.921 242.768C346.513 243.524 345.949 244.124 345.229 244.568C344.521 245 343.711 245.216 342.799 245.216C341.971 245.216 341.221 245.03 340.549 244.658C339.889 244.274 339.391 243.734 339.055 243.038L339.271 242.84V248.6H337.921ZM342.727 243.866C343.375 243.866 343.951 243.704 344.455 243.38C344.971 243.056 345.373 242.618 345.661 242.066C345.961 241.502 346.111 240.872 346.111 240.176C346.111 239.468 345.961 238.838 345.661 238.286C345.373 237.734 344.971 237.296 344.455 236.972C343.951 236.648 343.375 236.486 342.727 236.486C342.079 236.486 341.491 236.648 340.963 236.972C340.447 237.296 340.033 237.74 339.721 238.304C339.421 238.856 339.271 239.48 339.271 240.176C339.271 240.872 339.421 241.502 339.721 242.066C340.033 242.618 340.447 243.056 340.963 243.38C341.491 243.704 342.079 243.866 342.727 243.866ZM352.609 245.216C351.997 245.216 351.451 245.102 350.971 244.874C350.491 244.634 350.113 244.31 349.837 243.902C349.561 243.494 349.423 243.026 349.423 242.498C349.423 241.994 349.531 241.538 349.747 241.13C349.963 240.71 350.299 240.356 350.755 240.068C351.211 239.78 351.793 239.576 352.501 239.456L356.281 238.826V240.05L352.825 240.626C352.129 240.746 351.625 240.968 351.313 241.292C351.013 241.616 350.863 242 350.863 242.444C350.863 242.876 351.031 243.242 351.367 243.542C351.715 243.842 352.159 243.992 352.699 243.992C353.359 243.992 353.935 243.854 354.427 243.578C354.919 243.29 355.303 242.906 355.579 242.426C355.855 241.946 355.993 241.412 355.993 240.824V238.376C355.993 237.8 355.783 237.332 355.363 236.972C354.943 236.612 354.397 236.432 353.725 236.432C353.137 236.432 352.621 236.582 352.177 236.882C351.733 237.17 351.403 237.548 351.187 238.016L349.963 237.35C350.143 236.942 350.425 236.57 350.809 236.234C351.205 235.898 351.655 235.634 352.159 235.442C352.663 235.238 353.185 235.136 353.725 235.136C354.433 235.136 355.057 235.274 355.597 235.55C356.149 235.826 356.575 236.21 356.875 236.702C357.187 237.182 357.343 237.74 357.343 238.376V245H355.993V243.074L356.191 243.272C356.023 243.632 355.759 243.962 355.399 244.262C355.051 244.55 354.637 244.784 354.157 244.964C353.689 245.132 353.173 245.216 352.609 245.216ZM360.011 245V235.352H361.361V237.224L361.055 237.152C361.295 236.528 361.685 236.036 362.225 235.676C362.777 235.316 363.413 235.136 364.133 235.136C364.817 235.136 365.429 235.292 365.969 235.604C366.521 235.916 366.953 236.348 367.265 236.9C367.589 237.44 367.751 238.052 367.751 238.736V245H366.401V239.258C366.401 238.67 366.293 238.172 366.077 237.764C365.873 237.356 365.579 237.044 365.195 236.828C364.823 236.6 364.391 236.486 363.899 236.486C363.407 236.486 362.969 236.6 362.585 236.828C362.201 237.044 361.901 237.362 361.685 237.782C361.469 238.19 361.361 238.682 361.361 239.258V245H360.011ZM370.244 248.96C370.052 248.96 369.854 248.942 369.65 248.906C369.458 248.882 369.266 248.834 369.074 248.762V247.502C369.194 247.514 369.344 247.532 369.524 247.556C369.716 247.592 369.908 247.61 370.1 247.61C370.688 247.61 371.138 247.484 371.45 247.232C371.762 246.992 372.068 246.524 372.368 245.828L372.98 244.388L372.944 245.576L368.858 235.352H370.316L373.664 243.794H373.286L376.616 235.352H378.11L373.7 246.224C373.508 246.692 373.262 247.136 372.962 247.556C372.674 247.976 372.308 248.312 371.864 248.564C371.42 248.828 370.88 248.96 370.244 248.96ZM383.805 245.216C382.905 245.216 382.089 245 381.357 244.568C380.637 244.124 380.067 243.518 379.647 242.75C379.227 241.982 379.017 241.112 379.017 240.14C379.017 239.168 379.221 238.31 379.629 237.566C380.037 236.81 380.589 236.216 381.285 235.784C381.993 235.352 382.785 235.136 383.661 235.136C384.357 235.136 384.975 235.268 385.515 235.532C386.067 235.784 386.535 236.132 386.919 236.576C387.303 237.008 387.597 237.5 387.801 238.052C388.005 238.592 388.107 239.15 388.107 239.726C388.107 239.846 388.101 239.984 388.089 240.14C388.077 240.284 388.059 240.434 388.035 240.59H379.881V239.33H387.261L386.613 239.87C386.721 239.21 386.643 238.622 386.379 238.106C386.127 237.578 385.761 237.164 385.281 236.864C384.801 236.552 384.261 236.396 383.661 236.396C383.061 236.396 382.503 236.552 381.987 236.864C381.483 237.176 381.087 237.614 380.799 238.178C380.511 238.73 380.397 239.39 380.457 240.158C380.397 240.926 380.517 241.598 380.817 242.174C381.129 242.738 381.549 243.176 382.077 243.488C382.617 243.8 383.193 243.956 383.805 243.956C384.513 243.956 385.107 243.788 385.587 243.452C386.067 243.116 386.457 242.696 386.757 242.192L387.909 242.804C387.717 243.236 387.423 243.638 387.027 244.01C386.631 244.37 386.157 244.664 385.605 244.892C385.065 245.108 384.465 245.216 383.805 245.216ZM62.3786 268.216C61.4546 268.216 60.6446 267.982 59.9486 267.514C59.2526 267.046 58.7486 266.41 58.4366 265.606L59.5706 265.066C59.8466 265.654 60.2306 266.122 60.7226 266.47C61.2266 266.818 61.7786 266.992 62.3786 266.992C62.9546 266.992 63.4406 266.854 63.8366 266.578C64.2326 266.29 64.4306 265.918 64.4306 265.462C64.4306 265.126 64.3346 264.862 64.1426 264.67C63.9506 264.466 63.7286 264.31 63.4766 264.202C63.2246 264.094 63.0026 264.016 62.8106 263.968L61.4246 263.572C60.5366 263.32 59.8946 262.966 59.4986 262.51C59.1026 262.054 58.9046 261.526 58.9046 260.926C58.9046 260.362 59.0486 259.87 59.3366 259.45C59.6246 259.03 60.0146 258.706 60.5066 258.478C60.9986 258.25 61.5446 258.136 62.1446 258.136C62.9606 258.136 63.6986 258.352 64.3586 258.784C65.0306 259.204 65.5046 259.792 65.7806 260.548L64.6286 261.088C64.3886 260.548 64.0406 260.128 63.5846 259.828C63.1406 259.516 62.6426 259.36 62.0906 259.36C61.5506 259.36 61.1186 259.498 60.7946 259.774C60.4706 260.05 60.3086 260.398 60.3086 260.818C60.3086 261.142 60.3926 261.4 60.5606 261.592C60.7286 261.784 60.9206 261.928 61.1366 262.024C61.3646 262.12 61.5626 262.192 61.7306 262.24L63.3326 262.708C64.1126 262.936 64.7186 263.29 65.1506 263.77C65.5946 264.25 65.8166 264.814 65.8166 265.462C65.8166 265.99 65.6666 266.464 65.3666 266.884C65.0786 267.304 64.6766 267.634 64.1606 267.874C63.6446 268.102 63.0506 268.216 62.3786 268.216ZM72.4728 268.216C71.5728 268.216 70.7568 268 70.0248 267.568C69.3048 267.124 68.7348 266.518 68.3148 265.75C67.8948 264.982 67.6848 264.112 67.6848 263.14C67.6848 262.168 67.8888 261.31 68.2968 260.566C68.7048 259.81 69.2568 259.216 69.9528 258.784C70.6608 258.352 71.4528 258.136 72.3288 258.136C73.0248 258.136 73.6428 258.268 74.1828 258.532C74.7348 258.784 75.2028 259.132 75.5868 259.576C75.9708 260.008 76.2648 260.5 76.4688 261.052C76.6728 261.592 76.7748 262.15 76.7748 262.726C76.7748 262.846 76.7688 262.984 76.7568 263.14C76.7448 263.284 76.7268 263.434 76.7028 263.59H68.5488V262.33H75.9288L75.2808 262.87C75.3888 262.21 75.3108 261.622 75.0468 261.106C74.7948 260.578 74.4288 260.164 73.9488 259.864C73.4688 259.552 72.9288 259.396 72.3288 259.396C71.7288 259.396 71.1708 259.552 70.6548 259.864C70.1508 260.176 69.7548 260.614 69.4668 261.178C69.1788 261.73 69.0648 262.39 69.1248 263.158C69.0648 263.926 69.1848 264.598 69.4848 265.174C69.7968 265.738 70.2168 266.176 70.7448 266.488C71.2848 266.8 71.8608 266.956 72.4728 266.956C73.1808 266.956 73.7748 266.788 74.2548 266.452C74.7348 266.116 75.1248 265.696 75.4248 265.192L76.5768 265.804C76.3848 266.236 76.0908 266.638 75.6948 267.01C75.2988 267.37 74.8248 267.664 74.2728 267.892C73.7328 268.108 73.1328 268.216 72.4728 268.216ZM79.047 268V254.374H80.397V268H79.047ZM87.4443 268.216C86.5443 268.216 85.7283 268 84.9963 267.568C84.2763 267.124 83.7063 266.518 83.2863 265.75C82.8663 264.982 82.6563 264.112 82.6563 263.14C82.6563 262.168 82.8603 261.31 83.2683 260.566C83.6763 259.81 84.2283 259.216 84.9243 258.784C85.6323 258.352 86.4243 258.136 87.3003 258.136C87.9963 258.136 88.6143 258.268 89.1543 258.532C89.7063 258.784 90.1743 259.132 90.5583 259.576C90.9423 260.008 91.2363 260.5 91.4403 261.052C91.6443 261.592 91.7463 262.15 91.7463 262.726C91.7463 262.846 91.7403 262.984 91.7283 263.14C91.7163 263.284 91.6983 263.434 91.6743 263.59H83.5203V262.33H90.9003L90.2523 262.87C90.3603 262.21 90.2823 261.622 90.0183 261.106C89.7663 260.578 89.4003 260.164 88.9203 259.864C88.4403 259.552 87.9003 259.396 87.3003 259.396C86.7003 259.396 86.1423 259.552 85.6263 259.864C85.1223 260.176 84.7263 260.614 84.4383 261.178C84.1503 261.73 84.0363 262.39 84.0963 263.158C84.0363 263.926 84.1563 264.598 84.4563 265.174C84.7683 265.738 85.1883 266.176 85.7163 266.488C86.2563 266.8 86.8323 266.956 87.4443 266.956C88.1523 266.956 88.7463 266.788 89.2263 266.452C89.7063 266.116 90.0963 265.696 90.3963 265.192L91.5483 265.804C91.3563 266.236 91.0623 266.638 90.6663 267.01C90.2703 267.37 89.7963 267.664 89.2443 267.892C88.7043 268.108 88.1043 268.216 87.4443 268.216ZM97.3665 268.216C96.4425 268.216 95.6325 267.982 94.9365 267.514C94.2405 267.046 93.7365 266.41 93.4245 265.606L94.5585 265.066C94.8345 265.654 95.2185 266.122 95.7105 266.47C96.2145 266.818 96.7665 266.992 97.3665 266.992C97.9425 266.992 98.4285 266.854 98.8245 266.578C99.2205 266.29 99.4185 265.918 99.4185 265.462C99.4185 265.126 99.3225 264.862 99.1305 264.67C98.9385 264.466 98.7165 264.31 98.4645 264.202C98.2125 264.094 97.9905 264.016 97.7985 263.968L96.4125 263.572C95.5245 263.32 94.8825 262.966 94.4865 262.51C94.0905 262.054 93.8925 261.526 93.8925 260.926C93.8925 260.362 94.0365 259.87 94.3245 259.45C94.6125 259.03 95.0025 258.706 95.4945 258.478C95.9865 258.25 96.5325 258.136 97.1325 258.136C97.9485 258.136 98.6865 258.352 99.3465 258.784C100.019 259.204 100.493 259.792 100.769 260.548L99.6165 261.088C99.3765 260.548 99.0285 260.128 98.5725 259.828C98.1285 259.516 97.6305 259.36 97.0785 259.36C96.5385 259.36 96.1065 259.498 95.7825 259.774C95.4585 260.05 95.2965 260.398 95.2965 260.818C95.2965 261.142 95.3805 261.4 95.5485 261.592C95.7165 261.784 95.9085 261.928 96.1245 262.024C96.3525 262.12 96.5505 262.192 96.7185 262.24L98.3205 262.708C99.1005 262.936 99.7065 263.29 100.139 263.77C100.583 264.25 100.805 264.814 100.805 265.462C100.805 265.99 100.655 266.464 100.355 266.884C100.067 267.304 99.6645 267.634 99.1485 267.874C98.6325 268.102 98.0385 268.216 97.3665 268.216ZM105.859 268.216C105.247 268.216 104.701 268.102 104.221 267.874C103.741 267.634 103.363 267.31 103.087 266.902C102.811 266.494 102.673 266.026 102.673 265.498C102.673 264.994 102.781 264.538 102.997 264.13C103.213 263.71 103.549 263.356 104.005 263.068C104.461 262.78 105.043 262.576 105.751 262.456L109.531 261.826V263.05L106.075 263.626C105.379 263.746 104.875 263.968 104.563 264.292C104.263 264.616 104.113 265 104.113 265.444C104.113 265.876 104.281 266.242 104.617 266.542C104.965 266.842 105.409 266.992 105.949 266.992C106.609 266.992 107.185 266.854 107.677 266.578C108.169 266.29 108.553 265.906 108.829 265.426C109.105 264.946 109.243 264.412 109.243 263.824V261.376C109.243 260.8 109.033 260.332 108.613 259.972C108.193 259.612 107.647 259.432 106.975 259.432C106.387 259.432 105.871 259.582 105.427 259.882C104.983 260.17 104.653 260.548 104.437 261.016L103.213 260.35C103.393 259.942 103.675 259.57 104.059 259.234C104.455 258.898 104.905 258.634 105.409 258.442C105.913 258.238 106.435 258.136 106.975 258.136C107.683 258.136 108.307 258.274 108.847 258.55C109.399 258.826 109.825 259.21 110.125 259.702C110.437 260.182 110.593 260.74 110.593 261.376V268H109.243V266.074L109.441 266.272C109.273 266.632 109.009 266.962 108.649 267.262C108.301 267.55 107.887 267.784 107.407 267.964C106.939 268.132 106.423 268.216 105.859 268.216ZM113.262 268V258.352H114.612V268H113.262ZM113.262 256.57V254.59H114.612V256.57H113.262ZM124.573 268.216C123.673 268.216 122.863 268 122.143 267.568C121.423 267.124 120.853 266.524 120.433 265.768C120.025 265 119.821 264.136 119.821 263.176C119.821 262.204 120.025 261.34 120.433 260.584C120.853 259.828 121.417 259.234 122.125 258.802C122.845 258.358 123.661 258.136 124.573 258.136C125.401 258.136 126.139 258.316 126.787 258.676C127.435 259.036 127.945 259.522 128.317 260.134L128.101 260.512V254.374H129.451V268H128.101V265.84L128.317 266.038C127.981 266.734 127.477 267.274 126.805 267.658C126.145 268.03 125.401 268.216 124.573 268.216ZM124.645 266.866C125.293 266.866 125.875 266.704 126.391 266.38C126.919 266.056 127.333 265.618 127.633 265.066C127.945 264.502 128.101 263.872 128.101 263.176C128.101 262.48 127.945 261.856 127.633 261.304C127.333 260.74 126.919 260.296 126.391 259.972C125.875 259.648 125.293 259.486 124.645 259.486C124.009 259.486 123.433 259.648 122.917 259.972C122.401 260.296 121.993 260.734 121.693 261.286C121.405 261.838 121.261 262.468 121.261 263.176C121.261 263.872 121.405 264.502 121.693 265.066C121.993 265.618 122.395 266.056 122.899 266.38C123.415 266.704 123.997 266.866 124.645 266.866ZM134.905 268.216C134.293 268.216 133.747 268.102 133.267 267.874C132.787 267.634 132.409 267.31 132.133 266.902C131.857 266.494 131.719 266.026 131.719 265.498C131.719 264.994 131.827 264.538 132.043 264.13C132.259 263.71 132.595 263.356 133.051 263.068C133.507 262.78 134.089 262.576 134.797 262.456L138.577 261.826V263.05L135.121 263.626C134.425 263.746 133.921 263.968 133.609 264.292C133.309 264.616 133.159 265 133.159 265.444C133.159 265.876 133.327 266.242 133.663 266.542C134.011 266.842 134.455 266.992 134.995 266.992C135.655 266.992 136.231 266.854 136.723 266.578C137.215 266.29 137.599 265.906 137.875 265.426C138.151 264.946 138.289 264.412 138.289 263.824V261.376C138.289 260.8 138.079 260.332 137.659 259.972C137.239 259.612 136.693 259.432 136.021 259.432C135.433 259.432 134.917 259.582 134.473 259.882C134.029 260.17 133.699 260.548 133.483 261.016L132.259 260.35C132.439 259.942 132.721 259.57 133.105 259.234C133.501 258.898 133.951 258.634 134.455 258.442C134.959 258.238 135.481 258.136 136.021 258.136C136.729 258.136 137.353 258.274 137.893 258.55C138.445 258.826 138.871 259.21 139.171 259.702C139.483 260.182 139.639 260.74 139.639 261.376V268H138.289V266.074L138.487 266.272C138.319 266.632 138.055 266.962 137.695 267.262C137.347 267.55 136.933 267.784 136.453 267.964C135.985 268.132 135.469 268.216 134.905 268.216ZM142.308 268V258.352H143.658V260.224L143.352 260.152C143.592 259.528 143.982 259.036 144.522 258.676C145.074 258.316 145.71 258.136 146.43 258.136C147.114 258.136 147.726 258.292 148.266 258.604C148.818 258.916 149.25 259.348 149.562 259.9C149.886 260.44 150.048 261.052 150.048 261.736V268H148.698V262.258C148.698 261.67 148.59 261.172 148.374 260.764C148.17 260.356 147.876 260.044 147.492 259.828C147.12 259.6 146.688 259.486 146.196 259.486C145.704 259.486 145.266 259.6 144.882 259.828C144.498 260.044 144.198 260.362 143.982 260.782C143.766 261.19 143.658 261.682 143.658 262.258V268H142.308ZM155.469 268V258.352H156.819V268H155.469ZM155.469 256.57V254.59H156.819V256.57H155.469ZM159.474 268V258.352H160.824V260.224L160.518 260.152C160.758 259.528 161.148 259.036 161.688 258.676C162.24 258.316 162.876 258.136 163.596 258.136C164.28 258.136 164.892 258.292 165.432 258.604C165.984 258.916 166.416 259.348 166.728 259.9C167.052 260.44 167.214 261.052 167.214 261.736V268H165.864V262.258C165.864 261.67 165.756 261.172 165.54 260.764C165.336 260.356 165.042 260.044 164.658 259.828C164.286 259.6 163.854 259.486 163.362 259.486C162.87 259.486 162.432 259.6 162.048 259.828C161.664 260.044 161.364 260.362 161.148 260.782C160.932 261.19 160.824 261.682 160.824 262.258V268H159.474ZM173.033 268.216C172.109 268.216 171.299 267.982 170.603 267.514C169.907 267.046 169.403 266.41 169.091 265.606L170.225 265.066C170.501 265.654 170.885 266.122 171.377 266.47C171.881 266.818 172.433 266.992 173.033 266.992C173.609 266.992 174.095 266.854 174.491 266.578C174.887 266.29 175.085 265.918 175.085 265.462C175.085 265.126 174.989 264.862 174.797 264.67C174.605 264.466 174.383 264.31 174.131 264.202C173.879 264.094 173.657 264.016 173.465 263.968L172.079 263.572C171.191 263.32 170.549 262.966 170.153 262.51C169.757 262.054 169.559 261.526 169.559 260.926C169.559 260.362 169.703 259.87 169.991 259.45C170.279 259.03 170.669 258.706 171.161 258.478C171.653 258.25 172.199 258.136 172.799 258.136C173.615 258.136 174.353 258.352 175.013 258.784C175.685 259.204 176.159 259.792 176.435 260.548L175.283 261.088C175.043 260.548 174.695 260.128 174.239 259.828C173.795 259.516 173.297 259.36 172.745 259.36C172.205 259.36 171.773 259.498 171.449 259.774C171.125 260.05 170.963 260.398 170.963 260.818C170.963 261.142 171.047 261.4 171.215 261.592C171.383 261.784 171.575 261.928 171.791 262.024C172.019 262.12 172.217 262.192 172.385 262.24L173.987 262.708C174.767 262.936 175.373 263.29 175.805 263.77C176.249 264.25 176.471 264.814 176.471 265.462C176.471 265.99 176.321 266.464 176.021 266.884C175.733 267.304 175.331 267.634 174.815 267.874C174.299 268.102 173.705 268.216 173.033 268.216ZM182.425 268.108C181.561 268.108 180.895 267.856 180.427 267.352C179.959 266.848 179.725 266.128 179.725 265.192V259.702H177.943V258.352H178.393C178.801 258.352 179.125 258.22 179.365 257.956C179.605 257.68 179.725 257.338 179.725 256.93V256.12H181.075V258.352H183.199V259.702H181.075V265.192C181.075 265.516 181.123 265.804 181.219 266.056C181.315 266.296 181.477 266.488 181.705 266.632C181.945 266.776 182.263 266.848 182.659 266.848C182.755 266.848 182.869 266.842 183.001 266.83C183.133 266.818 183.247 266.806 183.343 266.794V268C183.199 268.036 183.037 268.06 182.857 268.072C182.677 268.096 182.533 268.108 182.425 268.108ZM188.22 268.216C187.608 268.216 187.062 268.102 186.582 267.874C186.102 267.634 185.724 267.31 185.448 266.902C185.172 266.494 185.034 266.026 185.034 265.498C185.034 264.994 185.142 264.538 185.358 264.13C185.574 263.71 185.91 263.356 186.366 263.068C186.822 262.78 187.404 262.576 188.112 262.456L191.892 261.826V263.05L188.436 263.626C187.74 263.746 187.236 263.968 186.924 264.292C186.624 264.616 186.474 265 186.474 265.444C186.474 265.876 186.642 266.242 186.978 266.542C187.326 266.842 187.77 266.992 188.31 266.992C188.97 266.992 189.546 266.854 190.038 266.578C190.53 266.29 190.914 265.906 191.19 265.426C191.466 264.946 191.604 264.412 191.604 263.824V261.376C191.604 260.8 191.394 260.332 190.974 259.972C190.554 259.612 190.008 259.432 189.336 259.432C188.748 259.432 188.232 259.582 187.788 259.882C187.344 260.17 187.014 260.548 186.798 261.016L185.574 260.35C185.754 259.942 186.036 259.57 186.42 259.234C186.816 258.898 187.266 258.634 187.77 258.442C188.274 258.238 188.796 258.136 189.336 258.136C190.044 258.136 190.668 258.274 191.208 258.55C191.76 258.826 192.186 259.21 192.486 259.702C192.798 260.182 192.954 260.74 192.954 261.376V268H191.604V266.074L191.802 266.272C191.634 266.632 191.37 266.962 191.01 267.262C190.662 267.55 190.248 267.784 189.768 267.964C189.3 268.132 188.784 268.216 188.22 268.216ZM195.622 268V254.374H196.972V268H195.622ZM202.418 268.216C201.806 268.216 201.26 268.102 200.78 267.874C200.3 267.634 199.922 267.31 199.646 266.902C199.37 266.494 199.232 266.026 199.232 265.498C199.232 264.994 199.34 264.538 199.556 264.13C199.772 263.71 200.108 263.356 200.564 263.068C201.02 262.78 201.602 262.576 202.31 262.456L206.09 261.826V263.05L202.634 263.626C201.938 263.746 201.434 263.968 201.122 264.292C200.822 264.616 200.672 265 200.672 265.444C200.672 265.876 200.84 266.242 201.176 266.542C201.524 266.842 201.968 266.992 202.508 266.992C203.168 266.992 203.744 266.854 204.236 266.578C204.728 266.29 205.112 265.906 205.388 265.426C205.664 264.946 205.802 264.412 205.802 263.824V261.376C205.802 260.8 205.592 260.332 205.172 259.972C204.752 259.612 204.206 259.432 203.534 259.432C202.946 259.432 202.43 259.582 201.986 259.882C201.542 260.17 201.212 260.548 200.996 261.016L199.772 260.35C199.952 259.942 200.234 259.57 200.618 259.234C201.014 258.898 201.464 258.634 201.968 258.442C202.472 258.238 202.994 258.136 203.534 258.136C204.242 258.136 204.866 258.274 205.406 258.55C205.958 258.826 206.384 259.21 206.684 259.702C206.996 260.182 207.152 260.74 207.152 261.376V268H205.802V266.074L206 266.272C205.832 266.632 205.568 266.962 205.208 267.262C204.86 267.55 204.446 267.784 203.966 267.964C203.498 268.132 202.982 268.216 202.418 268.216ZM213.168 268.216C212.244 268.216 211.434 267.982 210.738 267.514C210.042 267.046 209.538 266.41 209.226 265.606L210.36 265.066C210.636 265.654 211.02 266.122 211.512 266.47C212.016 266.818 212.568 266.992 213.168 266.992C213.744 266.992 214.23 266.854 214.626 266.578C215.022 266.29 215.22 265.918 215.22 265.462C215.22 265.126 215.124 264.862 214.932 264.67C214.74 264.466 214.518 264.31 214.266 264.202C214.014 264.094 213.792 264.016 213.6 263.968L212.214 263.572C211.326 263.32 210.684 262.966 210.288 262.51C209.892 262.054 209.694 261.526 209.694 260.926C209.694 260.362 209.838 259.87 210.126 259.45C210.414 259.03 210.804 258.706 211.296 258.478C211.788 258.25 212.334 258.136 212.934 258.136C213.75 258.136 214.488 258.352 215.148 258.784C215.82 259.204 216.294 259.792 216.57 260.548L215.418 261.088C215.178 260.548 214.83 260.128 214.374 259.828C213.93 259.516 213.432 259.36 212.88 259.36C212.34 259.36 211.908 259.498 211.584 259.774C211.26 260.05 211.098 260.398 211.098 260.818C211.098 261.142 211.182 261.4 211.35 261.592C211.518 261.784 211.71 261.928 211.926 262.024C212.154 262.12 212.352 262.192 212.52 262.24L214.122 262.708C214.902 262.936 215.508 263.29 215.94 263.77C216.384 264.25 216.606 264.814 216.606 265.462C216.606 265.99 216.456 266.464 216.156 266.884C215.868 267.304 215.466 267.634 214.95 267.874C214.434 268.102 213.84 268.216 213.168 268.216ZM218.871 268V258.352H220.221V268H218.871ZM218.871 256.57V254.59H220.221V256.57H218.871ZM229.516 268.108C228.652 268.108 227.986 267.856 227.518 267.352C227.05 266.848 226.816 266.128 226.816 265.192V259.702H225.034V258.352H225.484C225.892 258.352 226.216 258.22 226.456 257.956C226.696 257.68 226.816 257.338 226.816 256.93V256.12H228.166V258.352H230.29V259.702H228.166V265.192C228.166 265.516 228.214 265.804 228.31 266.056C228.406 266.296 228.568 266.488 228.796 266.632C229.036 266.776 229.354 266.848 229.75 266.848C229.846 266.848 229.96 266.842 230.092 266.83C230.224 266.818 230.338 266.806 230.434 266.794V268C230.29 268.036 230.128 268.06 229.948 268.072C229.768 268.096 229.624 268.108 229.516 268.108ZM236.737 268.216C235.837 268.216 235.021 268 234.289 267.568C233.569 267.124 232.999 266.518 232.579 265.75C232.159 264.982 231.949 264.112 231.949 263.14C231.949 262.168 232.153 261.31 232.561 260.566C232.969 259.81 233.521 259.216 234.217 258.784C234.925 258.352 235.717 258.136 236.593 258.136C237.289 258.136 237.907 258.268 238.447 258.532C238.999 258.784 239.467 259.132 239.851 259.576C240.235 260.008 240.529 260.5 240.733 261.052C240.937 261.592 241.039 262.15 241.039 262.726C241.039 262.846 241.033 262.984 241.021 263.14C241.009 263.284 240.991 263.434 240.967 263.59H232.813V262.33H240.193L239.545 262.87C239.653 262.21 239.575 261.622 239.311 261.106C239.059 260.578 238.693 260.164 238.213 259.864C237.733 259.552 237.193 259.396 236.593 259.396C235.993 259.396 235.435 259.552 234.919 259.864C234.415 260.176 234.019 260.614 233.731 261.178C233.443 261.73 233.329 262.39 233.389 263.158C233.329 263.926 233.449 264.598 233.749 265.174C234.061 265.738 234.481 266.176 235.009 266.488C235.549 266.8 236.125 266.956 236.737 266.956C237.445 266.956 238.039 266.788 238.519 266.452C238.999 266.116 239.389 265.696 239.689 265.192L240.841 265.804C240.649 266.236 240.355 266.638 239.959 267.01C239.563 267.37 239.089 267.664 238.537 267.892C237.997 268.108 237.397 268.216 236.737 268.216ZM243.312 268V258.352H244.662V259.936L244.482 259.702C244.71 259.246 245.052 258.886 245.508 258.622C245.976 258.358 246.54 258.226 247.2 258.226H247.812V259.576H246.966C246.27 259.576 245.712 259.792 245.292 260.224C244.872 260.656 244.662 261.268 244.662 262.06V268H243.312ZM249.286 268V254.374H250.636V263.914L250.06 263.824L255.478 258.352H257.224L253.444 262.222L257.566 268H255.946L252.076 262.654L252.94 262.726L250.186 265.57L250.636 264.454V268H249.286ZM263.381 268.216C262.469 268.216 261.641 268 260.897 267.568C260.153 267.124 259.559 266.524 259.115 265.768C258.683 265 258.467 264.13 258.467 263.158C258.467 262.198 258.683 261.34 259.115 260.584C259.547 259.828 260.129 259.234 260.861 258.802C261.605 258.358 262.445 258.136 263.381 258.136C264.317 258.136 265.151 258.352 265.883 258.784C266.627 259.216 267.209 259.81 267.629 260.566C268.061 261.322 268.277 262.186 268.277 263.158C268.277 264.142 268.055 265.018 267.611 265.786C267.167 266.542 266.573 267.136 265.829 267.568C265.097 268 264.281 268.216 263.381 268.216ZM263.381 266.866C264.029 266.866 264.611 266.704 265.127 266.38C265.655 266.056 266.069 265.612 266.369 265.048C266.681 264.484 266.837 263.854 266.837 263.158C266.837 262.462 266.681 261.838 266.369 261.286C266.069 260.734 265.655 260.296 265.127 259.972C264.611 259.648 264.029 259.486 263.381 259.486C262.733 259.486 262.145 259.648 261.617 259.972C261.101 260.296 260.687 260.734 260.375 261.286C260.063 261.838 259.907 262.462 259.907 263.158C259.907 263.854 260.063 264.484 260.375 265.048C260.687 265.612 261.101 266.056 261.617 266.38C262.145 266.704 262.733 266.866 263.381 266.866ZM270.55 268V258.352H271.9V260.224L271.594 260.152C271.834 259.528 272.224 259.036 272.764 258.676C273.316 258.316 273.952 258.136 274.672 258.136C275.356 258.136 275.968 258.292 276.508 258.604C277.06 258.916 277.492 259.348 277.804 259.9C278.128 260.44 278.29 261.052 278.29 261.736V268H276.94V262.258C276.94 261.67 276.832 261.172 276.616 260.764C276.412 260.356 276.118 260.044 275.734 259.828C275.362 259.6 274.93 259.486 274.438 259.486C273.946 259.486 273.508 259.6 273.124 259.828C272.74 260.044 272.44 260.362 272.224 260.782C272.008 261.19 271.9 261.682 271.9 262.258V268H270.55ZM281.751 268V259.702H279.825V258.352H281.751V257.488C281.751 256.816 281.901 256.252 282.201 255.796C282.501 255.328 282.897 254.974 283.389 254.734C283.881 254.494 284.409 254.374 284.973 254.374C285.093 254.374 285.231 254.386 285.387 254.41C285.543 254.422 285.669 254.44 285.765 254.464V255.688C285.681 255.664 285.567 255.652 285.423 255.652C285.279 255.64 285.177 255.634 285.117 255.634C284.541 255.634 284.061 255.772 283.677 256.048C283.293 256.324 283.101 256.804 283.101 257.488V258.352H288.519V259.702H283.101V268H281.751ZM287.385 268V258.352H288.735V268H287.385ZM291.129 268V258.352H292.479V259.936L292.299 259.702C292.527 259.246 292.869 258.886 293.325 258.622C293.793 258.358 294.357 258.226 295.017 258.226H295.629V259.576H294.783C294.087 259.576 293.529 259.792 293.109 260.224C292.689 260.656 292.479 261.268 292.479 262.06V268H291.129ZM297.103 268V258.352H298.453V260.188L298.237 259.918C298.501 259.354 298.891 258.916 299.407 258.604C299.935 258.292 300.511 258.136 301.135 258.136C301.879 258.136 302.551 258.346 303.151 258.766C303.751 259.186 304.177 259.732 304.429 260.404L304.051 260.422C304.291 259.678 304.705 259.114 305.293 258.73C305.893 258.334 306.553 258.136 307.273 258.136C307.921 258.136 308.515 258.292 309.055 258.604C309.607 258.916 310.045 259.348 310.369 259.9C310.705 260.44 310.873 261.052 310.873 261.736V268H309.523V262.258C309.523 261.67 309.415 261.172 309.199 260.764C308.995 260.356 308.713 260.044 308.353 259.828C307.993 259.6 307.579 259.486 307.111 259.486C306.655 259.486 306.241 259.6 305.869 259.828C305.497 260.044 305.203 260.362 304.987 260.782C304.771 261.19 304.663 261.682 304.663 262.258V268H303.313V262.258C303.313 261.67 303.205 261.172 302.989 260.764C302.785 260.356 302.503 260.044 302.143 259.828C301.783 259.6 301.369 259.486 300.901 259.486C300.433 259.486 300.013 259.6 299.641 259.828C299.281 260.044 298.993 260.362 298.777 260.782C298.561 261.19 298.453 261.682 298.453 262.258V268H297.103ZM316.133 268.216C315.521 268.216 314.975 268.102 314.495 267.874C314.015 267.634 313.637 267.31 313.361 266.902C313.085 266.494 312.947 266.026 312.947 265.498C312.947 264.994 313.055 264.538 313.271 264.13C313.487 263.71 313.823 263.356 314.279 263.068C314.735 262.78 315.317 262.576 316.025 262.456L319.805 261.826V263.05L316.349 263.626C315.653 263.746 315.149 263.968 314.837 264.292C314.537 264.616 314.387 265 314.387 265.444C314.387 265.876 314.555 266.242 314.891 266.542C315.239 266.842 315.683 266.992 316.223 266.992C316.883 266.992 317.459 266.854 317.951 266.578C318.443 266.29 318.827 265.906 319.103 265.426C319.379 264.946 319.517 264.412 319.517 263.824V261.376C319.517 260.8 319.307 260.332 318.887 259.972C318.467 259.612 317.921 259.432 317.249 259.432C316.661 259.432 316.145 259.582 315.701 259.882C315.257 260.17 314.927 260.548 314.711 261.016L313.487 260.35C313.667 259.942 313.949 259.57 314.333 259.234C314.729 258.898 315.179 258.634 315.683 258.442C316.187 258.238 316.709 258.136 317.249 258.136C317.957 258.136 318.581 258.274 319.121 258.55C319.673 258.826 320.099 259.21 320.399 259.702C320.711 260.182 320.867 260.74 320.867 261.376V268H319.517V266.074L319.715 266.272C319.547 266.632 319.283 266.962 318.923 267.262C318.575 267.55 318.161 267.784 317.681 267.964C317.213 268.132 316.697 268.216 316.133 268.216ZM326.884 268.216C325.96 268.216 325.15 267.982 324.454 267.514C323.758 267.046 323.254 266.41 322.942 265.606L324.076 265.066C324.352 265.654 324.736 266.122 325.228 266.47C325.732 266.818 326.284 266.992 326.884 266.992C327.46 266.992 327.946 266.854 328.342 266.578C328.738 266.29 328.936 265.918 328.936 265.462C328.936 265.126 328.84 264.862 328.648 264.67C328.456 264.466 328.234 264.31 327.982 264.202C327.73 264.094 327.508 264.016 327.316 263.968L325.93 263.572C325.042 263.32 324.4 262.966 324.004 262.51C323.608 262.054 323.41 261.526 323.41 260.926C323.41 260.362 323.554 259.87 323.842 259.45C324.13 259.03 324.52 258.706 325.012 258.478C325.504 258.25 326.05 258.136 326.65 258.136C327.466 258.136 328.204 258.352 328.864 258.784C329.536 259.204 330.01 259.792 330.286 260.548L329.134 261.088C328.894 260.548 328.546 260.128 328.09 259.828C327.646 259.516 327.148 259.36 326.596 259.36C326.056 259.36 325.624 259.498 325.3 259.774C324.976 260.05 324.814 260.398 324.814 260.818C324.814 261.142 324.898 261.4 325.066 261.592C325.234 261.784 325.426 261.928 325.642 262.024C325.87 262.12 326.068 262.192 326.236 262.24L327.838 262.708C328.618 262.936 329.224 263.29 329.656 263.77C330.1 264.25 330.322 264.814 330.322 265.462C330.322 265.99 330.172 266.464 329.872 266.884C329.584 267.304 329.182 267.634 328.666 267.874C328.15 268.102 327.556 268.216 326.884 268.216ZM332.586 268V258.352H333.936V268H332.586ZM332.586 256.57V254.59H333.936V256.57H332.586ZM337.059 268V266.02H338.499V268H337.059Z" fill="#5A5A57"/>
</svg>
