<svg width="95" height="95" viewBox="0 0 95 95" fill="none" xmlns="http://www.w3.org/2000/svg">
<circle cx="47.5" cy="47.5" r="47.5" fill="#E0E9E2"/>
<path d="M47 82C56.15 82 64.9252 78.3652 71.3952 71.8952C77.8652 65.4252 81.5 56.65 81.5 47.5C81.5 38.35 77.8652 29.5748 71.3952 23.1048C64.9252 16.6348 56.15 13 47 13C37.85 13 29.0748 16.6348 22.6048 23.1048C16.1348 29.5748 12.5 38.35 12.5 47.5C12.5 56.65 16.1348 65.4252 22.6048 71.8952C29.0748 78.3652 37.85 82 47 82ZM47 33.4844C44.0244 33.4844 41.6094 35.8994 41.6094 38.875V39.3364C41.6094 40.1942 41.2686 41.0169 40.662 41.6235C40.0555 42.23 39.2328 42.5708 38.375 42.5708C37.5172 42.5708 36.6945 42.23 36.088 41.6235C35.4814 41.0169 35.1406 40.1942 35.1406 39.3364V38.875C35.1406 35.7297 36.3901 32.7132 38.6142 30.4892C40.8382 28.2651 43.8547 27.0156 47 27.0156H47.5003C49.8203 27.0167 52.0843 27.7281 53.9879 29.0542C55.8916 30.3804 57.3435 32.2576 58.1485 34.4335C58.9534 36.6093 59.0729 38.9795 58.4907 41.2253C57.9085 43.471 56.6526 45.4847 54.8919 46.9954L51.5713 49.8417C51.1546 50.2033 50.8199 50.6496 50.5894 51.1508C50.3589 51.6521 50.2378 52.1966 50.2344 52.7483V55.0469C50.2344 55.9047 49.8936 56.7274 49.287 57.3339C48.6805 57.9405 47.8578 58.2812 47 58.2812C46.1422 58.2812 45.3195 57.9405 44.713 57.3339C44.1064 56.7274 43.7656 55.9047 43.7656 55.0469V52.7483C43.7656 49.7425 45.0766 46.8876 47.3579 44.9341L50.6829 42.0878C51.4415 41.4375 51.9828 40.5704 52.2338 39.6033C52.4848 38.6361 52.4336 37.6152 52.0869 36.6781C51.7402 35.7409 51.1148 34.9324 50.2948 34.3614C49.4747 33.7905 48.4995 33.4844 47.5003 33.4844H47ZM51.3125 64.75C51.3125 65.8937 50.8581 66.9907 50.0494 67.7994C49.2406 68.6082 48.1437 69.0625 47 69.0625C45.8563 69.0625 44.7594 68.6082 43.9506 67.7994C43.1419 66.9907 42.6875 65.8937 42.6875 64.75C42.6875 63.6063 43.1419 62.5094 43.9506 61.7006C44.7594 60.8919 45.8563 60.4375 47 60.4375C48.1437 60.4375 49.2406 60.8919 50.0494 61.7006C50.8581 62.5094 51.3125 63.6063 51.3125 64.75Z" fill="#2F6B3F"/>
</svg>
