<svg width="26" height="36" viewBox="0 0 26 36" fill="none" xmlns="http://www.w3.org/2000/svg">
<path d="M14.3661 3.25455L16.3676 2.84873L15.7857 0L13.7843 0.405822L14.3661 3.25455Z" fill="#F7C85C"/>
<path d="M8.74709 4.17141L8.24899 4.93991L9.49068 5.77099L10.7295 6.58783L11.2617 5.76789L11.8112 4.9593L10.6068 4.16516C9.95301 3.73405 9.37385 3.37681 9.33096 3.3855C9.28807 3.3942 9.01745 3.74574 8.74709 4.17141Z" fill="#F7C85C"/>
<path d="M20.1851 2.223L19.388 3.42297L20.211 3.95329L21.0225 4.50074L21.8423 3.26649L22.6593 2.01799L21.8993 1.50457C21.4835 1.21805 21.0965 0.999847 21.0536 1.00854C21.0107 1.01724 20.6178 1.57159 20.1851 2.223Z" fill="#F7C85C"/>
<path d="M15.0041 4.92007C12.7352 5.76579 11.575 7.8849 12.058 10.2494C12.5991 12.8987 14.9218 14.4302 17.5809 13.8911C20.2399 13.3519 21.7771 11.0377 21.236 8.38836C20.9043 6.76459 19.9991 5.6131 18.5522 5.01647C17.3031 4.51324 16.1642 4.47716 15.0041 4.92007Z" fill="#F7C85C"/>
<path d="M23.1408 9.04047L26 8.46072L25.5927 6.46661L22.7335 7.04636L23.1408 9.04047Z" fill="#F7C85C"/>
<path d="M21.9951 12.907L21.497 13.6755L22.7387 14.5066L23.9775 15.3234L24.5098 14.5035L25.0592 13.6949L23.8549 12.9008C23.2011 12.4696 22.6219 12.1124 22.579 12.1211C22.5361 12.1298 22.2655 12.4813 21.9951 12.907Z" fill="#F7C85C"/>
<path d="M6.67729 6.63803C7.65917 14.0811 12.5034 17.5096 20.1547 17.5097C20.9767 17.5097 21.7993 17.4582 22.6127 17.3566V36H15.2453V22.0779C3.93889 18.63 3.35531 12.9252 2.8447 11.6528C2.33408 10.3805 0.437373 10.8534 0.218692 9.3998C1.2517e-05 7.94625 0 6.63803 0 6.63803H6.67729Z" fill="#FAF9F6"/>
<path d="M3.56175e-05 23.9354H4.23083V27.424H3.56175e-05V23.9354Z" fill="#FAF9F6"/>
<path d="M3.56175e-05 29.895H4.23083V33.3836H3.56175e-05V29.895Z" fill="#FAF9F6"/>
</svg>
